<?xml version="1.0" encoding="UTF-8"?>
<svg id="Layer_1" data-name="Layer 1" xmlns="http://www.w3.org/2000/svg" viewBox="0 0 308.35 595.83">
  <defs>
    <style>
      .cls-1, .cls-2 {
        fill: #f8ffa9;
      }

      .cls-3, .cls-4, .cls-5, .cls-6, .cls-7 {
        stroke-width: 4px;
      }

      .cls-3, .cls-4, .cls-5, .cls-6, .cls-7, .cls-8, .cls-9, .cls-10, .cls-11, .cls-12, .cls-13, .cls-2 {
        stroke-miterlimit: 10;
      }

      .cls-3, .cls-4, .cls-5, .cls-6, .cls-7, .cls-8, .cls-9, .cls-11, .cls-13, .cls-2 {
        stroke: #000;
      }

      .cls-3, .cls-12 {
        fill: #fff;
      }

      .cls-4 {
        fill: #f73b3b;
      }

      .cls-5 {
        fill: #0cba00;
      }

      .cls-6 {
        fill: #f7ffa1;
      }

      .cls-7 {
        fill: none;
      }

      .cls-14 {
        opacity: .9;
      }

      .cls-15 {
        opacity: .77;
      }

      .cls-8, .cls-9, .cls-10, .cls-11, .cls-12, .cls-13, .cls-2 {
        stroke-width: 3px;
      }

      .cls-8, .cls-10 {
        fill: #d1faff;
      }

      .cls-9 {
        fill: #d4faff;
      }

      .cls-10, .cls-12 {
        stroke: #fff;
      }

      .cls-11 {
        fill: #fdffc4;
      }

      .cls-13 {
        fill: #f7ff00;
      }
    </style>
  </defs>
  <path class="cls-2" d="m11.69,258.67c1.02-9.44,8.14-17.37,16.53-21.81,8.39-4.45,17.98-5.99,27.39-7.3,53.98-7.5,108.92-9.34,163.02-2.8,11.27,1.36,22.63,3.13,33.11,7.49s23.05,10.52,28.32,20.58"/>
  <polyline class="cls-1" points="13.09 258.6 24.93 369.84 266.04 372.95 279.82 254.72"/>
  <g class="cls-15">
    <path class="cls-12" d="m34.89,284.41c-.08.25.07.56.32.65s.56-.05.66-.29c.12-.3-.05-.63-.22-.91-3.09-5.07-6.53-9.93-10.3-14.52-.72-.88-1.5-1.97-1.17-3.05.26-.84,1.1-1.34,1.89-1.72,6.25-2.96,13.8-3.14,19.31-7.32.61-.47,1.25-1.16,1.05-1.9-.14-.5-.64-.83-1.15-.9s-1.03.06-1.52.21c-3.03.97-5.67,2.91-8.66,3.97-2.82,1-5.86,1.18-8.72,2.02-1.99.58-4.06,1.69-4.72,3.65-.48,1.44-.06,3.06.73,4.36.79,1.3,1.91,2.35,2.98,3.44,3.83,3.88,7.08,8.34,9.52,12.32Z"/>
    <path class="cls-12" d="m36.29,286.89c-.06.43-.1.93.2,1.25.3.33.89.3,1.17-.04s.23-.9-.1-1.2-.87-.3-1.26-.01Z"/>
    <path class="cls-12" d="m18.47,256.11c2.23-5.66,4.48-11.35,7.77-16.46,3.3-5.11,7.75-9.65,13.33-12.05-1.79,3.42-4.87,5.96-7.26,9-4.57,5.81-6.53,13.36-11.22,19.07-.3.36-.62.73-1.03.94s-.95.26-1.34,0-.51-.89-.26-.5Z"/>
    <path class="cls-12" d="m31.19,253.43c2.12-4.93,4.25-9.87,6.37-14.8.89-2.07,1.79-4.15,2.99-6.06s2.74-3.65,4.68-4.81c.37-.22.82-.43,1.23-.28.46.16.67.72.6,1.21s-.35.9-.62,1.31c-2.46,3.72-4.54,7.71-6.17,11.86-.94,2.39-1.74,4.84-2.93,7.12s-2.81,4.4-5.03,5.7c-.41.24-.95.45-1.35.19-.34-.23-.41-.72-.27-1.11s.45-.69.48-.32Z"/>
    <path class="cls-12" d="m55.96,252.77c-.51-1.26-1.43-2.36-2.59-3.08-.36-.23-.84-.41-1.2-.19-.29.17-.4.55-.35.89s.23.63.4.92c4.38,7.25,9.53,14.03,15.34,20.2.3.32.68.66,1.1.56.44-.1.63-.6.76-1.03,1.55-5.43,3.11-11.08,2.13-16.64-.08-.43-.3-.96-.73-.93-.47.03-.58.66-.57,1.12.07,4.02-.56,8.06-1.84,11.87-.26.76-.74,1.65-1.54,1.61-.55-.03-.95-.5-1.28-.94-3.55-4.73-7.57-9.3-9.62-14.35Z"/>
    <path class="cls-12" d="m71.08,250.77c-.48.33-.46,1.14,0,1.49s1.19.22,1.54-.24.31-1.16-.05-1.62c-.22-.28-.56-.49-.91-.48s-.71.29-.58.84Z"/>
    <path class="cls-12" d="m54.81,228.04c1.93,3.07,4.06,6.02,6.39,8.8.15.18.31.37.53.46s.51.05.64-.15c.13-.22.01-.51-.11-.74-1.98-3.67-4.03-7.42-7.19-10.14-.41.4-.59,1-.47,1.56s.54,1.03.22.21Z"/>
    <path class="cls-12" d="m63.45,238.91c-.26.61.12,1.39.74,1.58.26.08.59.04.75-.18.19-.27.05-.63-.1-.93-.11-.22-.22-.44-.39-.61s-.42-.28-.66-.23-.43.31-.35.37Z"/>
    <path class="cls-12" d="m45.29,261.45c-.56-.34-1.32-.19-1.84.21s-.86.98-1.16,1.57c-3.38,6.58-3.45,14.76-.18,21.4,1.67-.85,2.28-2.96,2.23-4.84s-.6-3.72-.49-5.6c.24-4.09,3.54-7.66,3.22-11.74-.07-.93-.43-1.96-1.29-2.32s-2.07.55-.47,1.33Z"/>
    <g>
      <path class="cls-9" d="m15.19,234.67s-.05,25.74,1.34,27.3h0c1.38,1.56,17.79,26.89,20.32,27.86,2.53.97,29.26-12.19,32.33-13.4,3.08-1.21,4.83-22.55,5.08-25.38s-19.31-28.59-20.94-29.76-38.14,12.12-38.13,13.38Z"/>
      <path class="cls-9" d="m17.18,262.1c10.46-3.83,20.92-7.65,31.38-11.48,1.2-9.26,2.67-18.49,4.41-27.67"/>
      <path class="cls-9" d="m49.26,250.7c6.09,9.05,12.93,17.6,20.42,25.54"/>
    </g>
  </g>
  <g>
    <path class="cls-13" d="m211.79,277.41c26.76-5.1,57.4-21.04,62.87-52.28,5.13-29.33-22.89-51.24-54.6-35.01-21.52,11.02-9.9,24.07-57.99,33.43-18.73,3.65-39.93,15.88-52.09,39.22-8.2,15.75-7.24,67.8,24.26,61.8,27.35-5.21,20.1-36.22,77.54-47.17Z"/>
    <path class="cls-11" d="m210.21,271.7c25.2-5.05,52.26-18.01,58.08-45.42,5.47-25.74-19.34-46.57-46.09-30.23-19.45,11.88-11.08,23.68-56.37,32.93-17.64,3.6-36.99,12.48-48.9,33.15-8.04,13.94-9.16,66.71,19.03,55.72,22.35-8.71,20.17-35.31,74.25-46.15Z"/>
    <path class="cls-11" d="m190.7,240.42s14.04-18.74,53.41-41.26c6.28-3.59-16.11-1.25-19.73.64-4.67,2.43-37.21,42.47-33.68,40.63Z"/>
    <path class="cls-11" d="m196.32,224.02s-8.9,13.31-9.96,15.1c-.5.85-7.15-9.56-5.66-9.95,5.07-1.34,16.31-6.62,15.62-5.15Z"/>
    <path class="cls-11" d="m174.88,252.67c.12-.14,4.26-3.63,4.25-3.81-.03-.38-59.47,28.74-61.46,37.18-.65,2.75-1.86,15.76,4,22.7,3.25,3.85,9.09,3.23,11.53-1.05,0,0,8.63-18.07,13.28-23.5,20.86-24.32,26.69-29.51,28.41-31.52Z"/>
    <path class="cls-11" d="m140.5,310.2c12.2-6.77,21.04-33.21,55.8-40.62,1.37-.29-4.44-13.78-8.35-17.59-3.22-3.15-14.67,9.65-21.04,16.92-1.53,1.74-15.02,14.4-18.8,20.1-8.38,12.65-16.06,25.88-7.62,21.19Z"/>
    <path class="cls-11" d="m193.88,248.17c-1.62,1.43,6.52,19.08,10.09,18.58,1.74-.24,17.89-2.4,30.6-8.24,13.43-6.17,28.54-24.26,25.89-23.3-56.44,20.4-62.52,9.38-66.58,12.96Z"/>
    <path class="cls-11" d="m195.07,242.17c2.78,4.44,60.27-5.64,66.61-15.43,6.34-9.79-4.24-23.92-9.92-26.12-5.68-2.21-58.52,38.64-56.69,41.55Z"/>
    <path class="cls-11" d="m181.12,240.91s-4.04-9.25-5.87-9.53c-1.83-.28-17.55,3.22-17.23,3.9s24.51,7.27,23.1,5.63Z"/>
    <path class="cls-11" d="m175.9,244.79s-23.87-6.68-27.72-5c-27.21,11.86-32.99,41.46-32.34,40.74,13.77-15.08,61.51-36.2,60.06-35.75Z"/>
  </g>
  <g>
    <path class="cls-13" d="m87.93,292.05c14.37,25.16,40.98,50.48,74.29,45.2,31.28-4.96,43.65-40.72,16.38-67.01-18.52-17.85-27.63-1.65-53.65-46.79-10.13-17.58-29.76-34.69-57.44-38.86-18.67-2.81-70.71,16.12-53.79,45.74,14.69,25.72,43.38,7.72,74.21,61.72Z"/>
    <path class="cls-11" d="m93.13,288.5c13.78,23.6,36.16,46.35,65.75,42.75,27.78-3.39,40.17-35.53,14.5-56.8-18.66-15.46-27.65-2.97-52.59-45.34-9.71-16.5-25.32-32.9-50.23-37.75-16.8-3.27-70.27,13.81-49.48,38.38,16.48,19.47,42.48,8.1,72.06,58.76Z"/>
    <path class="cls-11" d="m117.87,258.07s23.7,7.65,59.95,39.49c5.78,5.07-4.3-16.63-7.45-19.63-4.06-3.86-55.57-22.78-52.49-19.85Z"/>
    <path class="cls-11" d="m136.3,258.07s-16.46-4.36-18.62-4.81c-1.02-.21,7.15-10.49,8.05-9.13,3.1,4.63,12.29,14.13,10.57,13.94Z"/>
    <path class="cls-11" d="m100.08,246.39c.18.07,5.12,3.04,5.3,2.96.38-.17-49.44-49.9-58.62-49-2.99.3-16.5,3.57-21.46,11.86-2.75,4.6-.11,10.26,5.03,11.24,0,0,21.16,2.44,28.23,5.25,31.67,12.59,38.9,16.66,41.52,17.7Z"/>
    <path class="cls-11" d="m30.34,231.66c11.02,9.93,40.67,9.7,60.13,42.11.77,1.28,12.33-9.23,14.81-14.47,2.05-4.33-14.77-11.42-24.28-15.33-2.28-.94-19.67-10.14-26.71-11.97-15.61-4.07-31.58-7.22-23.95-.35Z"/>
    <path class="cls-11" d="m111.17,263.95c-2-1.14-16.95,13.14-15.21,16.57.85,1.67,8.59,17.17,18.85,27.94,10.84,11.38,34.26,20.34,32.38,18-40-49.74-31.02-59.66-36.02-62.51Z"/>
    <path class="cls-11" d="m117.61,263.08c-3.51,4.33,26.48,58.68,38.52,61.68,12.04,3,22.6-12.52,22.86-19,.26-6.47-59.07-45.53-61.37-42.69Z"/>
    <path class="cls-11" d="m114.06,248.61s7.91-7.26,7.56-9.2c-.35-1.94-9.3-16.54-9.87-15.99s1.15,27.16,2.31,25.19Z"/>
    <path class="cls-11" d="m108.36,244.69s-1.52-26.31-4.54-29.61c-21.32-23.28-53.1-18.87-52.15-18.46,19.93,8.65,57.65,49.38,56.69,48.08Z"/>
  </g>
  <g>
    <path class="cls-13" d="m141.27,542.1c23.25-3.71,50.14-16.69,55.67-43.53,5.2-25.21-18.45-44.87-46.26-31.67-18.88,8.96-9.18,20.54-50.97,27.38-16.28,2.66-34.91,12.68-46.02,32.54-7.49,13.39-8.01,58.39,19.36,54.02,23.77-3.79,18.31-30.77,68.22-38.74Z"/>
    <path class="cls-11" d="m140.06,537.14c21.9-3.71,45.62-14.2,51.36-37.74,5.39-22.1-15.5-40.73-39.04-27.31-17.11,9.76-10.19,20.17-49.56,26.99-15.33,2.66-32.28,9.82-43.11,27.37-7.31,11.84-9.64,57.39,15,48.63,19.53-6.94,18.34-29.98,65.35-37.94Z"/>
    <path class="cls-11" d="m124.02,509.6s12.62-15.83,47.22-34.26c5.52-2.94-13.88-1.5-17.07.04-4.1,1.98-33.25,35.72-30.15,34.23Z"/>
    <path class="cls-11" d="m129.3,495.58s-8.04,11.27-9,12.78c-.45.72-5.93-8.44-4.63-8.74,4.41-1.03,14.27-5.3,13.63-4.04Z"/>
    <path class="cls-11" d="m110.04,519.77c.11-.12,3.78-3.03,3.77-3.18-.02-.33-52.12,23.29-54.07,30.52-.63,2.36-2.01,13.57,2.87,19.72,2.71,3.41,7.77,3.03,9.99-.6,0,0,7.92-15.39,12.08-19.96,18.65-20.47,23.82-24.81,25.36-26.49Z"/>
    <path class="cls-11" d="m78.84,568.58c10.71-5.53,19.04-28.14,49.27-33.65,1.19-.22-3.48-12.02-6.75-15.41-2.7-2.8-12.92,7.96-18.62,14.07-1.36,1.46-13.35,12.05-16.76,16.88-7.57,10.71-14.55,21.94-7.13,18.11Z"/>
    <path class="cls-11" d="m126.57,516.38c-1.44,1.19,5.14,16.66,8.24,16.32,1.51-.17,15.52-1.61,26.65-6.32,11.76-4.98,25.29-20.22,22.97-19.46-49.3,16.16-54.26,6.48-57.86,9.46Z"/>
    <path class="cls-11" d="m127.75,511.23c2.29,3.91,52.21-3.31,57.95-11.6,5.74-8.29-3.04-20.77-7.89-22.83s-51.56,31.86-50.06,34.43Z"/>
    <path class="cls-11" d="m115.73,509.77s-3.25-8.09-4.83-8.39c-1.57-.29-15.25,2.33-14.99,2.92s20.99,6.91,19.82,5.46Z"/>
    <path class="cls-11" d="m111.12,512.99s-20.45-6.39-23.82-5.04c-23.81,9.54-29.58,34.96-29,34.36,12.29-12.67,54.08-29.68,52.82-29.32Z"/>
  </g>
  <g>
    <path class="cls-13" d="m146.37,557.94c22.19,14.38,54.25,24.1,78.68,6.89,22.94-16.17,17.66-49.42-15.35-59.66-22.41-6.95-22.82,9.49-62.83-16.22-15.58-10.01-38.56-15.94-62.5-8.44-16.15,5.06-49.77,40.45-23.65,57.38,22.68,14.7,38.01-10.82,85.64,20.05Z"/>
    <path class="cls-11" d="m149.02,553.09c21.06,13.37,48.64,22.71,70.8,8.28,20.81-13.55,17.08-43.94-12.52-50.81-21.51-5-23.4,8.44-61.36-15.48-14.78-9.32-34.24-16.25-56.25-10.37-14.84,3.97-50.39,38.44-23.32,49.84,21.46,9.04,37.45-10.17,82.65,18.54Z"/>
    <path class="cls-11" d="m155.91,519.23s22.23-3.18,64.77,7.95c6.78,1.77-10.51-11.54-14.31-12.69-4.89-1.48-54.16,3.62-50.46,4.74Z"/>
    <path class="cls-11" d="m170.67,512.03s-15.03,2.97-16.95,3.46c-.91.23,1.27-11.13,2.57-10.4,4.45,2.47,15.84,6.42,14.38,6.95Z"/>
    <path class="cls-11" d="m136.7,516.9c.18-.01,5.39.41,5.5.28.23-.28-60.78-20.34-67.74-16.03-2.27,1.4-11.69,9.29-12.14,17.81-.25,4.73,4.27,8.2,8.8,6.96,0,0,17.98-6.33,24.83-6.86,30.7-2.37,38.23-1.96,40.76-2.16Z"/>
    <path class="cls-11" d="m74.6,532.45c13.04,3.59,36.68-8.18,66.03,9.97,1.16.71,5.95-12.15,5.72-17.29-.19-4.24-16.68-3.3-25.95-2.69-2.22.15-20.05-.37-26.47.93-14.23,2.87-28.35,6.6-19.32,9.09Z"/>
    <path class="cls-11" d="m153.04,526.52c-2.08-.12-7.99,17.07-5.14,19.11,1.38.99,14.17,10.29,26.96,14.84,13.51,4.8,36.07,2.77,33.57,1.65-53.16-23.9-50.17-35.29-55.38-35.6Z"/>
    <path class="cls-11" d="m157.82,523.31c-.97,4.81,46.12,36.29,57.04,33.97,10.91-2.32,12.77-18.79,10.23-24.03-2.54-5.25-66.63-13.1-67.27-9.94Z"/>
    <path class="cls-11" d="m148.84,513.2s3.25-8.86,2.15-10.27c-1.1-1.41-14.47-9.51-14.69-8.85-.22.67,12.46,21.14,12.55,19.11Z"/>
    <path class="cls-11" d="m142.61,512.32s-12.39-20.32-16.21-21.76c-26.95-10.17-50.53,5.75-49.6,5.71,19.63-.91,67.13,16.71,65.81,16.05Z"/>
  </g>
  <g class="cls-15">
    <path class="cls-10" d="m61.68,277.18c-.11.24,0,.56.24.68s.56.02.69-.21c.16-.28.02-.63-.11-.93-2.47-5.4-5.32-10.63-8.52-15.63-.61-.96-1.26-2.13-.8-3.17.36-.8,1.25-1.2,2.08-1.48,6.56-2.21,14.07-1.49,20.03-5,.66-.39,1.38-1,1.26-1.76-.08-.51-.54-.9-1.04-1.03s-1.03-.07-1.53.03c-3.12.6-5.97,2.23-9.07,2.93-2.91.66-5.95.48-8.9.98-2.04.35-4.24,1.2-5.11,3.07-.65,1.38-.42,3.03.21,4.41s1.62,2.56,2.56,3.76c3.35,4.31,6.05,9.11,8,13.35Z"/>
    <path class="cls-10" d="m62.78,279.8c-.11.42-.21.91.05,1.26.26.36.85.4,1.17.1s.33-.87.04-1.2-.83-.4-1.25-.16Z"/>
    <path class="cls-10" d="m48.71,247.14c2.88-5.35,5.78-10.75,9.66-15.43,3.87-4.69,8.83-8.67,14.66-10.39-2.18,3.19-5.54,5.34-8.26,8.08-5.22,5.23-8.06,12.5-13.38,17.62-.34.33-.7.65-1.13.82s-.98.15-1.33-.16-.41-.95-.2-.53Z"/>
    <path class="cls-10" d="m61.65,245.97c2.69-4.65,5.38-9.3,8.07-13.95,1.13-1.95,2.27-3.92,3.69-5.67s3.15-3.3,5.21-4.22c.4-.18.86-.33,1.25-.14.44.22.58.8.46,1.27s-.45.86-.77,1.23c-2.89,3.41-5.41,7.12-7.52,11.05-1.21,2.26-2.3,4.6-3.74,6.72s-3.31,4.04-5.66,5.07c-.44.19-.99.34-1.36.03-.31-.27-.33-.77-.14-1.13s.52-.63.52-.26Z"/>
    <path class="cls-10" d="m86.33,248.23c-.36-1.32-1.15-2.51-2.21-3.36-.34-.27-.78-.51-1.17-.33-.31.14-.46.5-.45.84s.15.65.29.96c3.5,7.72,7.81,15.06,12.85,21.86.26.35.6.73,1.03.69.45-.05.7-.52.87-.94,2.18-5.21,4.39-10.64,4.07-16.27-.02-.43-.18-.99-.62-1.01-.47-.02-.66.58-.7,1.05-.41,4-1.5,7.93-3.23,11.57-.34.72-.93,1.55-1.72,1.42-.54-.09-.88-.61-1.16-1.08-2.97-5.11-6.43-10.13-7.86-15.38Z"/>
    <path class="cls-10" d="m101.57,248.02c-.51.27-.59,1.07-.18,1.48s1.16.36,1.56-.06.44-1.11.14-1.61c-.18-.31-.49-.55-.85-.58s-.74.2-.67.77Z"/>
    <path class="cls-10" d="m88.09,223.54c1.55,3.28,3.33,6.45,5.31,9.49.13.2.27.41.48.52s.5.11.65-.08c.16-.21.07-.5-.03-.75-1.54-3.88-3.13-7.85-5.95-10.91-.45.34-.7.93-.65,1.49s.42,1.09.19.23Z"/>
    <path class="cls-10" d="m95.4,235.35c-.32.57-.05,1.4.55,1.66.25.11.59.11.77-.09.22-.24.12-.62,0-.93-.08-.23-.16-.46-.32-.65s-.38-.33-.63-.31-.46.26-.39.32Z"/>
    <path class="cls-10" d="m74.71,255.6c-.52-.41-1.29-.34-1.85-.01s-.97.88-1.34,1.42c-4.13,6.14-5.16,14.25-2.7,21.23,1.76-.65,2.62-2.67,2.78-4.54s-.16-3.77.17-5.62c.72-4.03,4.42-7.19,4.58-11.28.04-.93-.2-1.99-1.01-2.46s-2.12.3-.62,1.26Z"/>
    <g>
      <path class="cls-8" d="m47.97,225.46s-3.07,25.56-1.89,27.27h0c1.19,1.71,14.51,28.8,16.91,30.06,2.4,1.26,30.49-8.66,33.68-9.5,3.2-.84,7.45-21.83,8.03-24.61.59-2.78-15.81-30.67-17.3-32.02s-39.3,7.55-39.44,8.8Z"/>
      <path class="cls-8" d="m46.72,252.94c10.84-2.57,21.67-5.14,32.51-7.71,2.28-9.06,4.83-18.05,7.63-26.96"/>
      <path class="cls-8" d="m79.91,245.39c4.99,9.71,10.77,19,17.27,27.77"/>
    </g>
  </g>
  <g class="cls-15">
    <path class="cls-10" d="m160.09,261.84c-.26.04-.47.31-.44.58s.29.48.56.46c.32-.03.54-.33.71-.6,3.14-5.04,5.93-10.3,8.34-15.73.46-1.04,1.08-2.23,2.2-2.42.87-.15,1.69.38,2.39.92,5.46,4.25,9.01,10.91,15.23,13.95.69.34,1.6.6,2.17.08.38-.35.45-.94.29-1.43s-.51-.89-.87-1.26c-2.23-2.27-5.15-3.75-7.45-5.95-2.16-2.07-3.69-4.7-5.73-6.88-1.42-1.51-3.34-2.87-5.38-2.57-1.5.22-2.76,1.32-3.56,2.61s-1.24,2.77-1.73,4.21c-1.74,5.17-4.26,10.08-6.72,14.04Z"/>
    <path class="cls-10" d="m158.51,264.2c-.41.14-.87.33-1.03.74-.16.41.14.93.57,1.03s.91-.2,1.02-.63-.13-.91-.56-1.13Z"/>
    <path class="cls-10" d="m177.98,234.44c6.05-.56,12.15-1.11,18.2-.47,6.04.64,12.1,2.58,16.76,6.49-3.86-.06-7.51-1.67-11.3-2.43-7.25-1.46-14.87.18-22.08-1.43-.46-.1-.92-.22-1.31-.5s-.67-.73-.6-1.2.57-.86.33-.46Z"/>
    <path class="cls-10" d="m186.1,244.59c5.36-.32,10.73-.65,16.09-.97,2.25-.14,4.52-.27,6.76-.05s4.49.8,6.4,2.01c.37.23.75.54.8.97.06.48-.34.92-.81,1.08s-.96.09-1.45.04c-4.43-.53-8.92-.58-13.37-.17-2.56.24-5.11.63-7.67.59s-5.2-.53-7.35-1.92c-.4-.26-.83-.64-.77-1.12.05-.41.46-.7.87-.74s.81.09.5.29Z"/>
    <path class="cls-10" d="m197.83,266.42c.9-1.03,1.46-2.34,1.58-3.7.04-.43,0-.93-.37-1.16-.28-.18-.67-.11-.95.09s-.46.49-.64.77c-4.5,7.17-8.24,14.83-11.14,22.79-.15.41-.28.9,0,1.24.29.35.82.29,1.26.21,5.54-1.06,11.3-2.21,15.82-5.59.35-.26.72-.7.5-1.07-.24-.4-.85-.22-1.26,0-3.56,1.87-7.45,3.13-11.43,3.69-.79.11-1.81.08-2.13-.65-.22-.5.02-1.07.27-1.56,2.62-5.29,4.9-10.95,8.49-15.05Z"/>
    <path class="cls-10" d="m206.42,279.01c-.51-.28-1.22.1-1.34.67s.34,1.16.91,1.27,1.17-.25,1.42-.77c.16-.32.19-.72.02-1.03s-.58-.5-1.01-.13Z"/>
    <path class="cls-10" d="m219.39,254.26c-1.88,3.1-3.54,6.34-4.98,9.67-.09.22-.19.45-.17.69s.19.48.42.5c.26.02.46-.22.61-.43,2.38-3.42,4.82-6.94,5.82-10.99-.54-.18-1.16-.07-1.6.28s-.68.95-.09.29Z"/>
    <path class="cls-10" d="m213.58,266.87c-.66.04-1.19.73-1.08,1.38.05.27.23.55.5.59.32.05.59-.24.78-.51.15-.19.29-.39.37-.62s.06-.5-.09-.69-.47-.24-.49-.15Z"/>
    <path class="cls-10" d="m185.27,260.79c.05-.65-.43-1.26-1.01-1.55s-1.27-.33-1.92-.33c-7.4-.06-14.73,3.56-19.19,9.47,1.51,1.11,3.67.7,5.32-.19,1.65-.9,3.05-2.21,4.78-2.96,3.76-1.62,8.43-.29,11.93-2.41.8-.48,1.55-1.27,1.49-2.2s-1.42-1.6-1.4.17Z"/>
    <g>
      <path class="cls-8" d="m195.65,221.86s-23.01,11.54-23.78,13.48h0c-.77,1.94-16.01,27.99-15.73,30.69.27,2.7,24.05,20.64,26.52,22.84,2.47,2.2,22.31-5.84,24.95-6.88,2.64-1.05,16.84-30.11,17.15-32.1.31-1.98-27.99-28.61-29.11-28.03Z"/>
      <path class="cls-8" d="m172.05,235.99c8.13,7.62,16.25,15.24,24.38,22.85,8.81-3.09,17.72-5.94,26.69-8.52"/>
      <path class="cls-8" d="m196.66,259.5c-5.34,9.52-9.9,19.47-13.62,29.73"/>
    </g>
  </g>
  <g class="cls-15">
    <path class="cls-10" d="m101.24,288.58c-.25.08-.42.38-.35.64s.36.43.62.37c.32-.07.49-.41.61-.71,2.34-5.46,4.3-11.08,5.85-16.81.3-1.1.73-2.36,1.81-2.72.83-.28,1.73.12,2.5.55,6.04,3.37,10.56,9.41,17.16,11.48.73.23,1.67.35,2.15-.25.33-.4.3-1,.07-1.46s-.64-.81-1.05-1.11c-2.55-1.91-5.66-2.92-8.26-4.75-2.44-1.72-4.36-4.09-6.7-5.93-1.63-1.28-3.73-2.33-5.71-1.72-1.45.45-2.53,1.73-3.13,3.12s-.81,2.92-1.07,4.42c-.94,5.37-2.68,10.6-4.51,14.9Z"/>
    <path class="cls-10" d="m100.04,291.15c-.39.2-.81.46-.9.89-.09.43.27.9.72.93s.87-.34.91-.78-.27-.88-.72-1.04Z"/>
    <path class="cls-10" d="m114.77,258.78c5.9-1.47,11.85-2.94,17.92-3.22s12.35.71,17.55,3.87c-3.83.53-7.68-.51-11.54-.69-7.38-.35-14.67,2.43-22.04,1.93-.47-.03-.95-.08-1.37-.29s-.77-.62-.78-1.09.43-.94.26-.51Z"/>
    <path class="cls-10" d="m124.33,267.59c5.25-1.13,10.5-2.27,15.75-3.4,2.21-.48,4.42-.95,6.68-1.08,2.25-.13,4.56.11,6.63,1.02.4.17.82.42.94.84.13.47-.2.97-.63,1.19s-.94.24-1.42.26c-4.46.15-8.91.78-13.24,1.86-2.49.62-4.95,1.39-7.49,1.75s-5.22.26-7.56-.79c-.44-.2-.92-.51-.93-.99-.01-.41.35-.76.75-.86s.82-.03.54.21Z"/>
    <path class="cls-10" d="m139.24,287.38c.73-1.15,1.09-2.54,1-3.9-.03-.43-.15-.92-.54-1.09-.31-.13-.68,0-.92.23s-.38.55-.52.86c-3.36,7.77-5.9,15.91-7.55,24.21-.08.42-.14.94.18,1.22.34.3.86.17,1.28.02,5.32-1.89,10.83-3.9,14.79-7.92.3-.31.61-.8.33-1.13-.3-.36-.87-.09-1.25.18-3.24,2.39-6.89,4.22-10.74,5.38-.77.23-1.77.36-2.2-.32-.29-.46-.14-1.06.03-1.58,1.79-5.63,3.18-11.57,6.11-16.16Z"/>
    <path class="cls-10" d="m149.64,298.53c-.54-.2-1.19.28-1.22.86s.51,1.1,1.09,1.11,1.12-.42,1.29-.97c.11-.34.08-.74-.14-1.02s-.65-.41-1.02.02Z"/>
    <path class="cls-10" d="m158.71,272.09c-1.39,3.35-2.54,6.8-3.46,10.31-.06.23-.12.47-.07.7s.26.45.49.43c.26-.02.42-.29.53-.52,1.84-3.74,3.71-7.59,4.08-11.74-.56-.1-1.16.1-1.54.52s-.53,1.04-.04.3Z"/>
    <path class="cls-10" d="m154.87,285.44c-.64.14-1.07.9-.86,1.52.09.26.31.51.59.51.33,0,.54-.33.7-.62.11-.21.23-.43.27-.67s-.01-.51-.19-.67-.5-.17-.5-.07Z"/>
    <path class="cls-10" d="m125.98,283.72c-.05-.66-.61-1.18-1.24-1.38s-1.3-.13-1.95-.04c-7.32,1.07-14.02,5.76-17.53,12.27,1.66.87,3.74.14,5.23-.99s2.68-2.65,4.27-3.65c3.47-2.18,8.29-1.56,11.43-4.19.71-.6,1.34-1.49,1.14-2.4s-1.65-1.37-1.35.38Z"/>
    <g>
      <path class="cls-8" d="m130.33,243.67s-20.99,14.9-21.46,16.93h0c-.47,2.03-11.58,30.1-10.9,32.72.68,2.62,26.9,16.76,29.67,18.56,2.77,1.8,21.17-9.15,23.62-10.59,2.45-1.43,12.08-32.32,12.09-34.33s-32-24.03-33.02-23.3Z"/>
      <path class="cls-8" d="m109.14,261.21c9.19,6.3,18.37,12.6,27.56,18.89,8.24-4.4,16.61-8.55,25.09-12.46"/>
      <path class="cls-8" d="m137.04,280.72c-3.84,10.22-6.84,20.75-8.96,31.45"/>
    </g>
  </g>
  <g class="cls-15">
    <path class="cls-10" d="m60.44,402.8c-.25.08-.42.38-.35.64s.36.43.62.37c.32-.07.49-.41.61-.71,2.34-5.46,4.3-11.08,5.85-16.81.3-1.1.73-2.36,1.81-2.72.83-.28,1.73.12,2.5.55,6.04,3.37,10.56,9.41,17.16,11.48.73.23,1.67.35,2.15-.25.33-.4.3-1,.07-1.46s-.64-.81-1.05-1.11c-2.55-1.91-5.66-2.92-8.26-4.75-2.44-1.72-4.36-4.09-6.7-5.93-1.63-1.28-3.73-2.33-5.71-1.72-1.45.45-2.53,1.73-3.13,3.12s-.81,2.92-1.07,4.42c-.94,5.37-2.68,10.6-4.51,14.9Z"/>
    <path class="cls-10" d="m59.23,405.38c-.39.2-.81.46-.9.89-.09.43.27.9.72.93s.87-.34.91-.78-.27-.88-.72-1.04Z"/>
    <path class="cls-10" d="m73.97,373.01c5.9-1.47,11.85-2.94,17.92-3.22,6.07-.28,12.35.71,17.55,3.87-3.83.53-7.68-.51-11.54-.69-7.38-.35-14.67,2.43-22.04,1.93-.47-.03-.95-.08-1.37-.29s-.77-.62-.78-1.09.43-.94.26-.51Z"/>
    <path class="cls-10" d="m83.53,381.81c5.25-1.13,10.5-2.27,15.75-3.4,2.21-.48,4.42-.95,6.68-1.08,2.25-.13,4.56.11,6.63,1.02.4.17.82.42.94.84.13.47-.2.97-.63,1.19s-.94.24-1.42.26c-4.46.15-8.91.78-13.24,1.86-2.49.62-4.95,1.39-7.49,1.75-2.54.35-5.22.26-7.56-.79-.44-.2-.92-.51-.93-.99-.01-.41.35-.76.75-.86s.82-.03.54.21Z"/>
    <path class="cls-10" d="m98.44,401.61c.73-1.15,1.09-2.54,1-3.9-.03-.43-.15-.92-.54-1.09-.31-.13-.68,0-.92.23s-.38.55-.52.86c-3.36,7.77-5.9,15.91-7.55,24.21-.08.42-.14.94.18,1.22.34.3.86.17,1.28.02,5.32-1.89,10.83-3.9,14.79-7.92.3-.31.61-.8.33-1.13-.3-.36-.87-.09-1.25.18-3.24,2.39-6.89,4.22-10.74,5.38-.77.23-1.77.36-2.2-.32-.29-.46-.14-1.06.03-1.58,1.79-5.63,3.18-11.57,6.11-16.16Z"/>
    <path class="cls-10" d="m108.84,412.75c-.54-.2-1.19.28-1.22.86s.51,1.1,1.09,1.11,1.12-.42,1.29-.97c.11-.34.08-.74-.14-1.02s-.65-.41-1.02.02Z"/>
    <path class="cls-10" d="m117.9,386.32c-1.39,3.35-2.54,6.8-3.46,10.31-.06.23-.12.47-.07.7s.26.45.49.43c.26-.02.42-.29.53-.52,1.84-3.74,3.71-7.59,4.08-11.74-.56-.1-1.16.1-1.54.52s-.53,1.04-.04.3Z"/>
    <path class="cls-10" d="m114.07,399.66c-.64.14-1.07.9-.86,1.52.09.26.31.51.59.51.33,0,.54-.33.7-.62.11-.21.23-.43.27-.67s-.01-.51-.19-.67-.5-.17-.5-.07Z"/>
    <path class="cls-10" d="m85.17,397.95c-.05-.66-.61-1.18-1.24-1.38s-1.3-.13-1.95-.04c-7.32,1.07-14.02,5.76-17.53,12.27,1.66.87,3.74.14,5.23-.99s2.68-2.65,4.27-3.65c3.47-2.18,8.29-1.56,11.43-4.19.71-.6,1.34-1.49,1.14-2.4s-1.65-1.37-1.35.38Z"/>
    <g>
      <path class="cls-8" d="m89.52,357.89s-20.99,14.9-21.46,16.93h0c-.47,2.03-11.58,30.1-10.9,32.72.68,2.62,26.9,16.76,29.67,18.56,2.77,1.8,21.17-9.15,23.62-10.59,2.45-1.43,12.08-32.32,12.09-34.33s-32-24.03-33.02-23.3Z"/>
      <path class="cls-8" d="m68.34,375.43c9.19,6.3,18.37,12.6,27.56,18.89,8.24-4.4,16.61-8.55,25.09-12.46"/>
      <path class="cls-8" d="m96.23,394.94c-3.84,10.22-6.84,20.75-8.96,31.45"/>
    </g>
  </g>
  <g class="cls-15">
    <path class="cls-10" d="m131.71,254.51c-.11.24,0,.56.24.68s.56.02.69-.21c.16-.28.02-.63-.11-.93-2.47-5.4-5.32-10.63-8.52-15.63-.61-.96-1.26-2.13-.8-3.17.36-.8,1.25-1.2,2.08-1.48,6.56-2.21,14.07-1.49,20.03-5,.66-.39,1.38-1,1.26-1.76-.08-.51-.54-.9-1.04-1.03s-1.03-.07-1.53.03c-3.12.6-5.97,2.23-9.07,2.93-2.91.66-5.95.48-8.9.98-2.04.35-4.24,1.2-5.11,3.07-.65,1.38-.42,3.03.21,4.41s1.62,2.56,2.56,3.76c3.35,4.31,6.05,9.11,8,13.35Z"/>
    <path class="cls-10" d="m132.8,257.13c-.11.42-.21.91.05,1.26.26.36.85.4,1.17.1s.33-.87.04-1.2-.83-.4-1.25-.16Z"/>
    <path class="cls-10" d="m118.73,224.47c2.88-5.35,5.78-10.75,9.66-15.43s8.83-8.67,14.66-10.39c-2.18,3.19-5.54,5.34-8.26,8.08-5.22,5.23-8.06,12.5-13.38,17.62-.34.33-.7.65-1.13.82s-.98.15-1.33-.16-.41-.95-.2-.53Z"/>
    <path class="cls-10" d="m131.68,223.3c2.69-4.65,5.38-9.3,8.07-13.95,1.13-1.95,2.27-3.92,3.69-5.67,1.42-1.75,3.15-3.3,5.21-4.22.4-.18.86-.33,1.25-.14.44.22.58.8.46,1.27s-.45.86-.77,1.23c-2.89,3.41-5.41,7.12-7.52,11.05-1.21,2.26-2.3,4.6-3.74,6.72s-3.31,4.04-5.66,5.07c-.44.19-.99.34-1.36.03-.31-.27-.33-.77-.14-1.13s.52-.63.52-.26Z"/>
    <path class="cls-10" d="m156.35,225.57c-.36-1.32-1.15-2.51-2.21-3.36-.34-.27-.78-.51-1.17-.33-.31.14-.46.5-.45.84s.15.65.29.96c3.5,7.72,7.81,15.06,12.85,21.86.26.35.6.73,1.03.69.45-.05.7-.52.87-.94,2.18-5.21,4.39-10.64,4.07-16.27-.02-.43-.18-.99-.62-1.01-.47-.02-.66.58-.7,1.05-.41,4-1.5,7.93-3.23,11.57-.34.72-.93,1.55-1.72,1.42-.54-.09-.88-.61-1.16-1.08-2.97-5.11-6.43-10.13-7.86-15.38Z"/>
    <path class="cls-10" d="m171.6,225.35c-.51.27-.59,1.07-.18,1.48s1.16.36,1.56-.06.44-1.11.14-1.61c-.18-.31-.49-.55-.85-.58s-.74.2-.67.77Z"/>
    <path class="cls-10" d="m158.11,200.88c1.55,3.28,3.33,6.45,5.31,9.49.13.2.27.41.48.52s.5.11.65-.08c.16-.21.07-.5-.03-.75-1.54-3.88-3.13-7.85-5.95-10.91-.45.34-.7.93-.65,1.49s.42,1.09.19.23Z"/>
    <path class="cls-10" d="m165.42,212.69c-.32.57-.05,1.4.55,1.66.25.11.59.11.77-.09.22-.24.12-.62,0-.93-.08-.23-.16-.46-.32-.65s-.38-.33-.63-.31-.46.26-.39.32Z"/>
    <path class="cls-10" d="m144.73,232.93c-.52-.41-1.29-.34-1.85-.01s-.97.88-1.34,1.42c-4.13,6.14-5.16,14.25-2.7,21.23,1.76-.65,2.62-2.67,2.78-4.54s-.16-3.77.17-5.62c.72-4.03,4.42-7.19,4.58-11.28.04-.93-.2-1.99-1.01-2.46s-2.12.3-.62,1.26Z"/>
    <g>
      <path class="cls-8" d="m117.99,202.79s-3.07,25.56-1.89,27.27h0c1.19,1.71,14.51,28.8,16.91,30.06,2.4,1.26,30.49-8.66,33.68-9.5,3.2-.84,7.45-21.83,8.03-24.61s-15.81-30.67-17.3-32.02-39.3,7.55-39.44,8.8Z"/>
      <path class="cls-8" d="m116.74,230.27c10.84-2.57,21.67-5.14,32.51-7.71,2.28-9.06,4.83-18.05,7.63-26.96"/>
      <path class="cls-8" d="m149.94,222.72c4.99,9.71,10.77,19,17.27,27.77"/>
    </g>
  </g>
  <g>
    <path class="cls-5" d="m78.03,207.25c2.47.67,5.05-.38,6.22-2.6,2.36-4.49,3.39-6.88,10.32-7.11,4.09-.13,8.37.69,11.7,3.13,7.89,5.8,7.85,18.3,15.49,24.43-3.25-9.28-6.82-19.04-14.36-25.46-9.6-8.18-23.29-9.04-34.54-14.7-.55-.28-1.16-.66-1.24-1.26-.14-1.07,1.36-1.43,2.44-1.38,7.17.35,14.43.98,21.22,3.44,6.78,2.47,11.56,8.07,14.8,14.5-5.81-5.64-10.23-12.59-13.22-20.06-1.13-2.82-1.81-5.95-1.07-8.86.86-3.42,3.75-6.21,7.21-6.97s7.34.51,9.73,3.19c2.77,3.1,3.38,7.5,3.42,11.6.09,8.56-.33,18.42-2.14,26.75,2.23-15.46,6.33-31.82,14.62-44.96,1.23-1.95,2.66-3.98,5.11-4.37,1.17-.19,2.43.2,3.19,1.13,1.15,1.42.54,2.97-.06,4.35-6.08,13.89-13.19,27.32-21.26,40.15-.77,1.23-1.06,2.78-.53,4.16.95,2.47,3.59,2.49,5.78,2.26,9.85-1.03,19.45-3.75,29.35-4.26,9.9-.51,20.65,1.6,27.71,8.7-.92,3.91-5.57,5.42-9.52,6.29-12.22,2.68-24.59,5.37-37.19,4.78-1.57-.07-3.15.27-4.39,1.19-3.29,2.45-1.66,6.14.52,8.51,1.68,1.83,3.77,3.4,4.73,5.68.7,1.66.39,4.03-1.32,4.54-1.27.38-2.65-.53-3.35-1.69-.69-1.15-.22-4.78-.61-6.06-1.35-4.43-5.76-5.84-10.22-7.14-4.46-1.3-9.51-.19-12.91,2.84-2.92,2.6-4.75,6.54-8.37,8.08-3.52,1.5-7.69.23-11.07-1.69-7.73-4.39-13.39-12.29-15.03-20.94-.33-1.77-.5-3.61,0-5.32s3.45-4.97,5.2-5.34c.67-.16,2.16.09,3.62.49Z"/>
    <path class="cls-5" d="m176.81,213.63c1.32.03-7.78-1.07-29.93,2.31-18.38,2.81-11.2-3.72-27.76.28"/>
    <path class="cls-5" d="m70.15,219.92s18.46,7.64,26.36-.85c7.77-8.35,28.51,10.37,28.51,10.37"/>
    <path class="cls-5" d="m103.97,164.77l9.09,40.54-9.09-40.54Z"/>
  </g>
  <g>
    <path class="cls-13" d="m192.33,281.41c-4.57-24.54-24.36-49.82-68.8-46.4-41.73,3.22-76.22,36.54-56.13,62.77,13.64,17.81,33.65,2.88,42.15,46.93,3.31,17.15,18.73,34.32,51.11,39.59,21.85,3.55,96.96-11.93,91.58-40.82-4.67-25.09-50.11-9.38-59.92-62.06Z"/>
    <path class="cls-11" d="m183.95,284.53c-4.66-23.04-20.52-45.68-59.43-43.67-36.53,1.89-69.11,31.78-48.34,53.18,15.1,15.55,32.97,4.14,41.61,45.5,3.36,16.11,14.14,32.41,42.69,38.19,19.26,3.9,95.17-9.76,82.27-34.04-10.23-19.25-48.79-9.7-58.79-59.16Z"/>
    <path class="cls-11" d="m136.84,312.21s-25.55-8.38-53.92-40.3c-4.52-5.09-3.47,15.98-1.13,18.97,3.02,3.85,57.33,24.24,55.05,21.33Z"/>
    <path class="cls-11" d="m113.79,311.33s18.25,4.92,20.72,5.45c1.17.25-14.51,9.61-14.92,8.27-1.4-4.54-7.85-13.98-5.79-13.72Z"/>
    <path class="cls-11" d="m152.85,324.13c-.19-.08-4.79-3.12-5.05-3.06-.56.14,35.24,49.67,47.19,49.25,3.9-.14,22.52-2.6,33.13-10.23,5.89-4.23,5.6-9.72-.31-10.89,0,0-25.15-3.32-32.49-6.32-32.88-13.45-39.76-17.65-42.47-18.76Z"/>
    <path class="cls-11" d="m232.18,341.42c-8.49-9.95-45.67-11.14-52.74-42.8-.28-1.25-20.32,8.16-26.21,13.01-4.87,4.01,12.38,11.53,22.19,15.69,2.35,1,19.19,10.55,27.01,12.62,17.35,4.6,35.62,8.35,29.75,1.47Z"/>
    <path class="cls-11" d="m148.34,306.96c1.89,1.17,28.18-11.66,27.83-14.99-.17-1.62-1.6-16.69-8.69-27.39-7.5-11.3-32-20.91-30.89-18.61,23.53,49.07,7.02,58.05,11.76,60.99Z"/>
    <path class="cls-11" d="m139.83,307.47c6.69-3.94-1.87-56.91-15.32-60.33-13.45-3.42-34.91,10.8-38.68,16.93-3.77,6.12,49.6,45.99,54,43.4Z"/>
    <path class="cls-11" d="m136.55,321.37s-13.74,6.51-14.34,8.36c-.6,1.86,2.82,16.13,3.83,15.63,1.01-.5,13.02-25.81,10.51-23.99Z"/>
    <path class="cls-11" d="m141.6,325.35s-12.1,25.03-10.08,28.3c14.26,23.09,56.32,20.43,55.36,19.99-20.3-9.15-45.78-49.57-45.28-48.29Z"/>
  </g>
  <g>
    <path class="cls-3" d="m306.15,12.15L124.76,553.45c-.99,2.96-5.39,3.73-9.82,1.72-4.43-2.02-7.21-6.06-6.22-9.02L290.11,4.84c-.99,2.96,1.79,7,6.22,9.02,4.43,2.02,8.82,1.25,9.82-1.72Z"/>
    <ellipse class="cls-3" cx="298.13" cy="8.49" rx="5.61" ry="8.84" transform="translate(148.12 266.27) rotate(-61.43)"/>
    <polygon class="cls-4" points="206.74 308.8 194 291.66 186.14 315.12 186.81 314.91 199.13 331.5 206.74 308.8"/>
    <polygon class="cls-4" points="191.82 353.32 179.08 336.18 171.22 359.64 171.89 359.43 184.22 376.02 191.82 353.32"/>
    <polygon class="cls-4" points="176.01 400.51 163.27 383.37 155.41 406.83 156.07 406.63 168.4 423.22 176.01 400.51"/>
    <polygon class="cls-4" points="159.6 449.48 146.86 432.34 139 455.8 139.66 455.6 151.99 472.19 159.6 449.48"/>
    <polygon class="cls-4" points="145.28 492.22 132.54 475.08 124.68 498.54 125.34 498.34 137.67 514.93 145.28 492.22"/>
    <polygon class="cls-4" points="133.39 527.71 120.65 510.57 112.79 534.03 113.45 533.83 125.78 550.42 133.39 527.71"/>
    <polygon class="cls-4" points="299.1 33.18 286.36 16.04 278.5 39.5 279.16 39.3 291.49 55.89 299.1 33.18"/>
    <polygon class="cls-4" points="284.18 77.7 271.44 60.56 263.58 84.02 264.24 83.81 276.57 100.41 284.18 77.7"/>
    <polygon class="cls-4" points="268.37 124.89 255.63 107.75 247.77 131.21 248.43 131.01 260.76 147.6 268.37 124.89"/>
    <polygon class="cls-4" points="251.96 173.86 239.22 156.72 231.36 180.18 232.02 179.98 244.35 196.57 251.96 173.86"/>
    <polygon class="cls-4" points="237.64 216.6 224.9 199.46 217.04 222.92 217.7 222.72 230.03 239.31 237.64 216.6"/>
    <polygon class="cls-4" points="222.16 262.78 209.42 245.64 201.56 269.1 202.23 268.89 214.56 285.48 222.16 262.78"/>
  </g>
  <g class="cls-15">
    <path class="cls-10" d="m225.51,295.89c-.08.25.07.56.32.65s.56-.05.66-.29c.12-.3-.05-.63-.22-.91-3.09-5.07-6.53-9.93-10.3-14.52-.72-.88-1.5-1.97-1.17-3.05.26-.84,1.1-1.34,1.89-1.72,6.25-2.96,13.8-3.14,19.31-7.32.61-.47,1.25-1.16,1.05-1.9-.14-.5-.64-.83-1.15-.9s-1.03.06-1.52.21c-3.03.97-5.67,2.91-8.66,3.97-2.82,1-5.86,1.18-8.72,2.02-1.99.58-4.06,1.69-4.72,3.65-.48,1.44-.06,3.06.73,4.36s1.91,2.35,2.98,3.44c3.83,3.88,7.08,8.34,9.52,12.32Z"/>
    <path class="cls-10" d="m226.9,298.37c-.06.43-.1.93.2,1.25.3.33.89.3,1.17-.04s.23-.9-.1-1.2-.87-.3-1.26-.01Z"/>
    <path class="cls-10" d="m209.09,267.58c2.23-5.66,4.48-11.35,7.77-16.46,3.3-5.11,7.75-9.65,13.33-12.05-1.79,3.42-4.87,5.96-7.26,9-4.57,5.81-6.53,13.36-11.22,19.07-.3.36-.62.73-1.03.94s-.95.26-1.34,0-.51-.89-.26-.5Z"/>
    <path class="cls-10" d="m221.8,264.9c2.12-4.93,4.25-9.87,6.37-14.8.89-2.07,1.79-4.15,2.99-6.06s2.74-3.65,4.68-4.81c.37-.22.82-.43,1.23-.28.46.16.67.72.6,1.21s-.35.9-.62,1.31c-2.46,3.72-4.54,7.71-6.17,11.86-.94,2.39-1.74,4.84-2.93,7.12s-2.81,4.4-5.03,5.7c-.41.24-.95.45-1.35.19-.34-.23-.41-.72-.27-1.11s.45-.69.48-.32Z"/>
    <path class="cls-10" d="m246.58,264.24c-.51-1.26-1.43-2.36-2.59-3.08-.36-.23-.84-.41-1.2-.19-.29.17-.4.55-.35.89s.23.63.4.92c4.38,7.25,9.53,14.03,15.34,20.2.3.32.68.66,1.1.56.44-.1.63-.6.76-1.03,1.55-5.43,3.11-11.08,2.13-16.64-.08-.43-.3-.96-.73-.93-.47.03-.58.66-.57,1.12.07,4.02-.56,8.06-1.84,11.87-.26.76-.74,1.65-1.54,1.61-.55-.03-.95-.5-1.28-.94-3.55-4.73-7.57-9.3-9.62-14.35Z"/>
    <path class="cls-10" d="m261.69,262.24c-.48.33-.46,1.14,0,1.49s1.19.22,1.54-.24.31-1.16-.05-1.62c-.22-.28-.56-.49-.91-.48s-.71.29-.58.84Z"/>
    <path class="cls-10" d="m245.42,239.52c1.93,3.07,4.06,6.02,6.39,8.8.15.18.31.37.53.46s.51.05.64-.15c.13-.22.01-.51-.11-.74-1.98-3.67-4.03-7.42-7.19-10.14-.41.4-.59,1-.47,1.56s.54,1.03.22.21Z"/>
    <path class="cls-10" d="m254.06,250.39c-.26.61.12,1.39.74,1.58.26.08.59.04.75-.18.19-.27.05-.63-.1-.93-.11-.22-.22-.44-.39-.61s-.42-.28-.66-.23-.43.31-.35.37Z"/>
    <path class="cls-10" d="m235.9,272.93c-.56-.34-1.32-.19-1.84.21s-.86.98-1.16,1.57c-3.38,6.58-3.45,14.76-.18,21.4,1.67-.85,2.28-2.96,2.23-4.84-.06-1.87-.6-3.72-.49-5.6.24-4.09,3.54-7.66,3.22-11.74-.07-.93-.43-1.96-1.29-2.32s-2.07.55-.47,1.33Z"/>
    <g>
      <path class="cls-8" d="m205.8,246.14s-.05,25.74,1.34,27.3h0c1.38,1.56,17.79,26.89,20.32,27.86,2.53.97,29.26-12.19,32.33-13.4s4.83-22.55,5.08-25.38c.25-2.83-19.31-28.59-20.94-29.76-1.63-1.17-38.14,12.12-38.13,13.38Z"/>
      <path class="cls-8" d="m207.8,273.58c10.46-3.83,20.92-7.65,31.38-11.48,1.2-9.26,2.67-18.49,4.41-27.67"/>
      <path class="cls-8" d="m239.87,262.17c6.09,9.05,12.93,17.6,20.42,25.54"/>
    </g>
  </g>
  <g>
    <path class="cls-13" d="m160.81,449.87c24.35-10.3,50.39-31.39,49.83-61.27-.52-28.06-31.01-42.34-58-20.76-18.32,14.65-4.95,24.22-48.67,42.91-17.03,7.28-34.83,22.98-42.04,47.01-4.86,16.21,5.57,63.89,34.24,51.76,24.89-10.53,12.37-37.54,64.63-59.65Z"/>
    <path class="cls-11" d="m158.28,444.95c22.88-9.93,46.08-27.53,46.56-53.97.45-24.83-26.79-38.78-49.09-18.14-16.2,15-6.14,24.11-47.23,42.12-16.01,7.01-32.66,19.23-40.14,40.75-5.04,14.51,3.56,63.28,28.18,47.27,19.52-12.7,12.59-36.71,61.71-58.03Z"/>
    <path class="cls-11" d="m134.11,420.26s9.83-20.18,42.91-49.16c5.27-4.62-15.45,2.23-18.53,4.73-3.97,3.21-27.39,46.87-24.39,44.43Z"/>
    <path class="cls-11" d="m136.43,404s-5.98,14.11-6.65,15.98c-.32.88-8.5-7.29-7.17-7.96,4.54-2.29,14.2-9.51,13.82-8.01Z"/>
    <path class="cls-11" d="m121.41,434.85c.09-.15,3.36-4.23,3.31-4.4-.1-.35-50.93,38.91-51.27,47.09-.11,2.67,1.13,14.89,7.93,20.04,3.78,2.86,9.18,1.07,10.7-3.38,0,0,4.84-18.44,8.25-24.4,15.26-26.75,19.82-32.75,21.07-34.95Z"/>
    <path class="cls-11" d="m99.46,494.98c10.29-8.79,13.8-34.96,45.29-49.07,1.24-.56-6.72-11.74-11.1-14.43-3.62-2.22-12.09,11.95-16.79,19.97-1.12,1.92-11.55,16.39-14.08,22.43-5.61,13.39-10.44,27.17-3.32,21.09Z"/>
    <path class="cls-11" d="m138.54,426.73c-1.27,1.65,9.65,16.19,12.94,14.98,1.6-.59,16.47-5.96,27.41-13.99,11.56-8.49,22.53-28.3,20.2-26.86-49.6,30.6-57.36,21.74-60.54,25.88Z"/>
    <path class="cls-11" d="m138.57,420.96c3.44,3.5,55.91-17.83,60.11-28.16,4.2-10.33-8.39-21.11-14.15-21.95-5.77-.84-48.22,47.81-45.96,50.12Z"/>
    <path class="cls-11" d="m125.15,422.73s-5.51-7.66-7.29-7.53c-1.78.12-15.99,6.64-15.57,7.2.43.56,24.49,1.54,22.86.33Z"/>
    <path class="cls-11" d="m120.93,427.39s-23.77-1.14-27.11,1.22c-23.54,16.61-23.58,45.06-23.1,44.26,10.25-16.76,51.49-46.2,50.21-45.48Z"/>
  </g>
  <g class="cls-15">
    <path class="cls-10" d="m113.1,470.08c-.19.2-.19.56,0,.76s.56.21.76.02c.25-.23.24-.62.2-.96-.66-6.22-1.76-12.39-3.28-18.45-.29-1.16-.55-2.55.26-3.43.62-.68,1.65-.78,2.58-.79,7.28-.02,14.55,3.21,21.67,1.7.79-.17,1.71-.54,1.85-1.34.09-.54-.24-1.08-.69-1.38s-1-.41-1.54-.48c-3.32-.44-6.7.23-10.04-.11-3.13-.32-6.11-1.51-9.21-2-2.15-.34-4.63-.22-6.13,1.36-1.1,1.16-1.43,2.89-1.26,4.48.17,1.59.77,3.1,1.3,4.61,1.91,5.42,3,11.12,3.53,16Z"/>
    <path class="cls-10" d="m113.31,473.07c-.25.39-.51.84-.37,1.28.14.44.71.68,1.14.49s.62-.76.44-1.19-.7-.67-1.2-.58Z"/>
    <path class="cls-10" d="m110.17,435.75c4.66-4.39,9.36-8.8,14.8-12.19,5.43-3.39,11.71-5.71,18.11-5.48-3.24,2.45-7.31,3.49-10.95,5.31-6.96,3.48-12.22,9.79-19.25,13.13-.45.21-.91.41-1.41.44s-1.03-.18-1.27-.6-.09-1.08-.02-.6Z"/>
    <path class="cls-10" d="m123.49,438.91c4.24-3.75,8.48-7.49,12.72-11.24,1.78-1.57,3.57-3.15,5.57-4.43,2-1.28,4.25-2.25,6.61-2.48.46-.04.97-.04,1.3.28.36.36.31.99.03,1.42s-.74.7-1.18.97c-4.02,2.44-7.78,5.3-11.2,8.52-1.97,1.85-3.83,3.83-5.98,5.47s-4.65,2.93-7.35,3.17c-.5.05-1.11,0-1.37-.43-.22-.37-.07-.88.24-1.18s.73-.45.6-.09Z"/>
    <path class="cls-10" d="m147.37,449.41c.08-1.43-.31-2.89-1.09-4.1-.25-.38-.61-.77-1.06-.72-.35.04-.63.35-.73.69s-.07.7-.03,1.05c.91,8.87,2.77,17.65,5.54,26.13.14.43.35.93.8,1.03.46.1.87-.29,1.19-.65,3.91-4.47,7.94-9.16,9.5-14.89.12-.44.15-1.05-.28-1.21-.46-.18-.85.36-1.05.81-1.74,3.86-4.15,7.42-7.09,10.47-.58.61-1.45,1.24-2.19.84-.51-.27-.68-.9-.79-1.47-1.26-6.09-3.04-12.26-2.72-17.99Z"/>
    <path class="cls-10" d="m162.66,454.29c-.6.1-.95.87-.68,1.42s1.04.74,1.58.46.81-.96.68-1.56c-.08-.37-.31-.72-.65-.86s-.8-.04-.93.55Z"/>
    <path class="cls-10" d="m157.37,425.34c.45,3.79,1.17,7.55,2.13,11.25.06.24.13.49.3.68s.47.28.68.14c.23-.15.24-.48.22-.75-.24-4.38-.5-8.88-2.3-12.89-.56.19-1.01.69-1.15,1.27s.05,1.23.11.29Z"/>
    <path class="cls-10" d="m160.72,439.58c-.52.46-.52,1.38,0,1.84.22.19.55.31.8.16.3-.17.33-.58.32-.93,0-.25-.01-.51-.1-.75s-.27-.46-.52-.51-.55.1-.5.19Z"/>
    <path class="cls-10" d="m133.3,452.88c-.38-.58-1.17-.77-1.85-.63-.68.14-1.26.55-1.81.97-6.17,4.75-9.91,12.51-9.78,20.3,1.97-.06,3.51-1.8,4.29-3.61s1.1-3.82,2.04-5.55c2.06-3.78,6.81-5.71,8.34-9.74.35-.92.46-2.06-.19-2.79-.65-.73-2.22-.41-1.04,1.05Z"/>
    <g>
      <path class="cls-8" d="m116.67,413.86s-11.6,24.49-10.99,26.6h0c.62,2.11,4.87,33.6,6.84,35.66,1.98,2.06,33.33,1.53,36.81,1.76,3.47.23,14.73-19.31,16.24-21.89,1.51-2.58-5.55-35.9-6.58-37.75-1.03-1.85-41.77-5.59-42.32-4.39Z"/>
      <path class="cls-8" d="m106.25,440.88c11.68,1.05,23.36,2.1,35.04,3.16,5.31-8.28,10.85-16.41,16.62-24.37"/>
      <path class="cls-8" d="m141.91,444.43c1.74,11.36,4.41,22.57,7.97,33.5"/>
    </g>
  </g>
  <g class="cls-15">
    <path class="cls-10" d="m172.81,379.85c-.28-.03-.56.19-.61.46s.17.57.44.62c.34.06.64-.18.89-.42,4.59-4.25,8.88-8.82,12.83-13.66.76-.93,1.71-1.96,2.91-1.84.92.09,1.61.86,2.17,1.6,4.37,5.83,6.13,13.58,11.59,18.39.61.54,1.46,1.05,2.18.68.48-.25.72-.83.69-1.38s-.27-1.05-.54-1.52c-1.63-2.93-4.19-5.24-5.91-8.11-1.62-2.7-2.44-5.8-3.91-8.58-1.02-1.93-2.59-3.84-4.75-4.1-1.59-.19-3.17.58-4.34,1.66-1.18,1.09-2.03,2.47-2.92,3.8-3.2,4.77-7.12,9.05-10.72,12.4Z"/>
    <path class="cls-10" d="m170.54,381.81c-.46.03-.98.09-1.25.46-.27.38-.12.98.29,1.2s.98.04,1.21-.36.12-.96-.25-1.31Z"/>
    <path class="cls-10" d="m198.58,356.99c6.3,1.12,12.65,2.24,18.61,4.58,5.96,2.33,11.58,5.98,15.22,11.24-3.91-1.13-7.17-3.78-10.8-5.61-6.95-3.5-15.15-3.94-22.03-7.58-.44-.23-.88-.48-1.19-.87s-.47-.93-.28-1.38.81-.72.46-.38Z"/>
    <path class="cls-10" d="m204,369.55c5.54,1.16,11.07,2.32,16.61,3.48,2.33.49,4.66.98,6.88,1.82,2.22.84,4.34,2.06,5.94,3.82.31.34.61.76.55,1.21-.07.51-.61.84-1.12.87s-1-.17-1.48-.36c-4.36-1.76-8.9-3.07-13.53-3.89-2.66-.47-5.36-.78-7.96-1.53-2.6-.75-5.13-1.98-6.93-3.99-.34-.38-.66-.88-.47-1.35.16-.4.66-.58,1.09-.51s.8.32.43.43Z"/>
    <path class="cls-10" d="m209.87,394.97c1.2-.79,2.13-1.97,2.63-3.32.16-.42.25-.95-.05-1.28-.24-.26-.65-.3-.99-.17s-.6.36-.87.6c-6.57,6.04-12.49,12.77-17.64,20.05-.26.37-.54.84-.35,1.26.19.43.75.53,1.23.56,5.92.46,12.09.89,17.62-1.28.43-.17.93-.51.81-.95-.13-.47-.8-.46-1.28-.36-4.14.91-8.43,1.11-12.63.58-.84-.1-1.86-.42-1.98-1.25-.08-.57.32-1.08.7-1.51,4.14-4.65,8.01-9.76,12.8-12.93Z"/>
    <path class="cls-10" d="m215.1,410.15c-.44-.42-1.27-.24-1.54.31s.02,1.28.57,1.54,1.26.07,1.66-.39c.25-.28.39-.68.3-1.04s-.45-.67-.99-.42Z"/>
    <path class="cls-10" d="m235.14,388.61c-2.77,2.63-5.36,5.45-7.74,8.43-.16.2-.32.4-.37.65s.05.54.29.63c.26.09.53-.1.74-.27,3.37-2.81,6.82-5.71,8.96-9.55-.49-.34-1.16-.4-1.71-.16-.55.24-.95.77-.17.27Z"/>
    <path class="cls-10" d="m225.73,399.8c-.68-.14-1.41.41-1.48,1.1-.03.29.08.62.35.74.32.14.66-.09.94-.3.2-.16.41-.32.55-.53s.2-.49.1-.73-.41-.38-.45-.28Z"/>
    <path class="cls-10" d="m198.67,385.77c.24-.65-.08-1.4-.6-1.86s-1.2-.69-1.86-.87c-7.5-2.11-15.95-.47-22.12,4.29,1.23,1.55,3.54,1.74,5.46,1.28,1.92-.45,3.72-1.4,5.67-1.68,4.27-.61,8.65,2.05,12.79.87.94-.27,1.93-.86,2.12-1.82s-1-2.02-1.47-.21Z"/>
    <g>
      <path class="cls-8" d="m220.01,349.11s-26.57,5.34-27.89,7.09h0c-1.32,1.75-24.03,23.99-24.5,26.8-.47,2.82,18.7,27.64,20.59,30.56,1.89,2.92,24.28.26,27.25-.07,2.97-.33,25.47-25.91,26.33-27.84.86-1.93-20.49-36.82-21.78-36.55Z"/>
      <path class="cls-8" d="m192.12,356.91c6.14,9.99,12.28,19.98,18.41,29.98,9.81-.7,19.64-1.11,29.48-1.24"/>
      <path class="cls-8" d="m210.6,387.62c-8.07,8.18-15.46,17.03-22.09,26.41"/>
    </g>
  </g>
  <g class="cls-15">
    <path class="cls-10" d="m43.47,321.71c-.43-.05-.87.29-.93.73s.26.88.69.96c.52.09.99-.29,1.38-.66,7.07-6.64,13.67-13.78,19.75-21.34,1.16-1.45,2.64-3.06,4.49-2.89,1.43.13,2.51,1.31,3.38,2.45,6.84,8.99,9.65,20.99,18.19,28.4.95.82,2.27,1.62,3.39,1.04.75-.39,1.11-1.3,1.06-2.14s-.43-1.62-.85-2.36c-2.56-4.52-6.56-8.08-9.26-12.51-2.54-4.17-3.85-8.97-6.16-13.26-1.6-2.98-4.06-5.93-7.42-6.31-2.47-.28-4.91.93-6.72,2.63-1.81,1.7-3.12,3.85-4.49,5.92-4.92,7.43-10.94,14.12-16.49,19.35Z"/>
    <path class="cls-10" d="m39.98,324.78c-.71.05-1.52.15-1.93.73-.42.59-.17,1.52.46,1.86s1.52.06,1.88-.57.18-1.5-.41-2.02Z"/>
    <path class="cls-10" d="m83.19,285.96c9.79,1.66,19.65,3.34,28.92,6.89,9.27,3.55,18.03,9.14,23.73,17.26-6.07-1.71-11.16-5.78-16.82-8.58-10.82-5.35-23.55-5.95-34.25-11.52-.68-.35-1.37-.74-1.85-1.33s-.74-1.43-.45-2.14,1.25-1.12.72-.59Z"/>
    <path class="cls-10" d="m91.75,305.39c8.6,1.74,17.2,3.48,25.8,5.21,3.61.73,7.24,1.46,10.7,2.75,3.45,1.28,6.75,3.15,9.25,5.86.48.52.96,1.16.86,1.87-.11.79-.93,1.32-1.73,1.37s-1.56-.26-2.3-.55c-6.78-2.69-13.84-4.66-21.03-5.88-4.13-.7-8.32-1.15-12.36-2.28-4.04-1.13-7.98-3.01-10.8-6.12-.53-.58-1.04-1.36-.75-2.09.25-.62,1.02-.9,1.68-.81s1.25.48.67.66Z"/>
    <path class="cls-10" d="m101.12,344.76c1.85-1.24,3.29-3.09,4.05-5.18.24-.66.38-1.48-.1-1.99-.37-.4-1.02-.45-1.53-.26-.52.19-.93.57-1.34.95-10.12,9.44-19.23,19.95-27.13,31.3-.4.58-.82,1.31-.53,1.95.31.67,1.18.81,1.91.86,9.19.65,18.76,1.25,27.31-2.19.66-.26,1.43-.8,1.24-1.48-.21-.73-1.25-.71-1.99-.54-6.41,1.46-13.06,1.81-19.59,1.04-1.3-.15-2.89-.63-3.09-1.92-.14-.88.49-1.68,1.07-2.35,6.36-7.26,12.32-15.23,19.7-20.2Z"/>
    <path class="cls-10" d="m109.41,368.24c-.68-.65-1.97-.36-2.39.49s.05,1.98.91,2.38c.86.4,1.95.1,2.57-.62.38-.44.6-1.05.46-1.62s-.7-1.03-1.54-.64Z"/>
    <path class="cls-10" d="m140.25,334.6c-4.27,4.11-8.25,8.51-11.92,13.17-.24.31-.49.63-.56,1.01s.09.84.46.97c.4.14.81-.15,1.14-.43,5.2-4.4,10.51-8.94,13.79-14.91-.77-.52-1.8-.6-2.65-.23s-1.47,1.21-.26.42Z"/>
    <path class="cls-10" d="m125.79,352.07c-1.05-.2-2.19.65-2.28,1.72-.04.45.13.96.55,1.14.49.21,1.03-.14,1.45-.47.31-.24.63-.5.84-.83s.31-.77.15-1.13c-.16-.36-.64-.58-.7-.44Z"/>
    <path class="cls-10" d="m83.66,330.61c.36-1.01-.14-2.17-.95-2.88-.81-.71-1.86-1.05-2.9-1.33-11.65-3.19-24.75-.55-34.26,6.9,1.92,2.39,5.5,2.65,8.48,1.93,2.98-.72,5.75-2.22,8.78-2.67,6.61-.99,13.43,3.08,19.85,1.2,1.46-.43,2.98-1.35,3.27-2.84.29-1.49-1.57-3.13-2.28-.31Z"/>
    <g>
      <path class="cls-8" d="m116.35,273.5s-41.16,8.58-43.18,11.31h0c-2.03,2.73-37.01,37.48-37.7,41.85-.7,4.37,29.31,42.66,32.28,47.17,2.97,4.51,37.67.14,42.27-.4,4.61-.54,39.21-40.47,40.53-43.48,1.32-3-32.19-56.89-34.19-56.45Z"/>
      <path class="cls-8" d="m73.18,285.91c9.63,15.43,19.26,30.86,28.9,46.29,15.21-1.19,30.45-1.94,45.71-2.25"/>
      <path class="cls-8" d="m102.18,333.34c-12.42,12.78-23.79,26.58-33.96,41.22"/>
    </g>
  </g>
  <g>
    <path class="cls-13" d="m137.97,547.41c16.47,20.68,43.79,40.08,72.42,31.51,26.88-8.05,32.43-41.26,4.39-61.44-19.04-13.7-24.65,1.75-54.43-35.33-11.6-14.44-31.5-27.36-56.58-27.84-16.92-.32-60.04,22.55-40.64,46.9,16.84,21.14,39.48,1.81,74.84,46.2Z"/>
    <path class="cls-11" d="m142.02,543.65c15.72,19.37,38.91,36.98,64.5,30.33,24.03-6.24,30.14-36.24,4.26-52.16-18.81-11.57-24.87.57-53.27-34.16-11.06-13.53-27.31-26.29-50.04-27.7-15.33-.95-59.99,20.45-37.94,39.86,17.48,15.39,38.74,2.25,72.49,43.83Z"/>
    <path class="cls-11" d="m159.3,513.74s22.09,4.04,58.89,28.11c5.87,3.84-6.3-14.28-9.54-16.57-4.16-2.96-52.51-13.77-49.36-11.53Z"/>
    <path class="cls-11" d="m175.59,511.59s-15.2-1.96-17.17-2.1c-.94-.07,4.74-10.15,5.74-9.05,3.43,3.76,12.98,11.12,11.43,11.15Z"/>
    <path class="cls-11" d="m141.83,505.43c.17.04,4.98,2.1,5.13,2.01.31-.19-51.18-38.58-59.15-36.71-2.6.61-14.04,5.1-17.17,13.03-1.74,4.41,1.44,9.13,6.13,9.4,0,0,19.06-.3,25.72,1.38,29.87,7.5,36.87,10.27,39.33,10.89Z"/>
    <path class="cls-11" d="m78.01,500.46c11.23,7.54,37.38,3.89,59.44,30.42.87,1.04,9.5-9.63,10.91-14.58,1.16-4.08-14.77-8.43-23.75-10.8-2.15-.57-18.9-6.72-25.39-7.53-14.41-1.8-28.98-2.74-21.21,2.48Z"/>
    <path class="cls-11" d="m154.27,519.74c-1.94-.78-12.99,13.65-10.94,16.49,1,1.38,10.17,14.26,20.85,22.63,11.29,8.85,33.32,14.08,31.31,12.22-42.82-39.54-36.37-49.4-41.21-51.34Z"/>
    <path class="cls-11" d="m159.83,518.22c-2.45,4.25,32.21,49.05,43.3,50.32,11.08,1.27,18.08-13.76,17.34-19.54s-59.02-33.58-60.63-30.78Z"/>
    <path class="cls-11" d="m154.52,505.77s5.89-7.37,5.29-9.05c-.6-1.68-10.7-13.62-11.13-13.05-.42.56,5.1,24,5.83,22.11Z"/>
    <path class="cls-11" d="m148.89,502.96s-5.3-23.2-8.47-25.78c-22.33-18.2-49.74-10.59-48.84-10.34,18.9,5.37,58.35,37.16,57.31,36.12Z"/>
  </g>
  <g>
    <path class="cls-13" d="m114.89,361.86c19.31,20.1,49.92,37.73,79.25,25.76,27.54-11.24,30.23-46.81-1.22-65.19-21.35-12.48-25.79,4.38-60.67-31.63-13.58-14.02-35.77-25.59-62.23-23.52-17.85,1.4-61.07,29.94-38.34,53.6,19.74,20.55,41.74-2.15,83.19,40.99Z"/>
    <path class="cls-11" d="m118.8,357.48c18.39,18.79,44.48,34.96,70.8,25.32,24.71-9.05,28.3-41.29-.47-55.4-20.91-10.25-26.13,3.16-59.34-30.52-12.93-13.12-31.26-24.89-55.33-24.04-16.24.57-61.23,27.72-36.16,45.9,19.87,14.41,41.01-1.61,80.49,38.72Z"/>
    <path class="cls-11" d="m134.16,324.18s23.64,1.99,64.68,23.56c6.54,3.44-7.99-14.4-11.62-16.48-4.66-2.69-56.6-9.11-53.07-7.08Z"/>
    <path class="cls-11" d="m151.1,320.24s-16.19-.5-18.28-.45c-.99.02,4.02-11.18,5.19-10.13,3.97,3.61,14.73,10.38,13.1,10.58Z"/>
    <path class="cls-11" d="m114.97,317.22c.18.03,5.45,1.7,5.59,1.59.3-.23-57.56-35.39-65.77-32.6-2.68.91-14.3,6.81-16.84,15.5-1.41,4.82,2.39,9.47,7.35,9.27,0,0,20.04-2.27,27.22-1.19,32.16,4.83,39.8,7.03,42.45,7.43Z"/>
    <path class="cls-11" d="m47.3,318.55c12.54,6.79,39.73.25,65.48,25.94,1.01,1.01,9.09-11.13,10.1-16.48.84-4.42-16.35-7.36-26.04-8.93-2.32-.38-20.54-5.13-27.45-5.32-15.34-.41-30.77.09-22.1,4.79Z"/>
    <path class="cls-11" d="m129.42,331.02c-2.11-.62-12.39,15.72-9.96,18.5,1.18,1.35,12.06,13.98,24.11,21.7,12.73,8.16,36.42,11.41,34.13,9.66-48.84-37.26-42.99-48.31-48.28-49.86Z"/>
    <path class="cls-11" d="m135.13,328.84c-2.17,4.73,38.58,48.38,50.37,48.57s17.73-16.36,16.4-22.37c-1.33-6.01-65.34-29.31-66.77-26.2Z"/>
    <path class="cls-11" d="m128.36,316.27s5.5-8.37,4.71-10.08c-.79-1.71-12.56-13.25-12.96-12.61s7.65,24.77,8.24,22.7Z"/>
    <path class="cls-11" d="m122.17,313.89s-7.79-23.9-11.36-26.3c-25.24-16.88-53.38-6.04-52.41-5.87,20.42,3.71,64.98,33.16,63.78,32.16Z"/>
  </g>
  <g class="cls-15">
    <path class="cls-10" d="m164.36,488.32c-.25-.12-.59-.01-.73.23s-.04.59.21.73c.29.17.67.04.98-.09,5.75-2.46,11.32-5.33,16.67-8.56,1.03-.62,2.27-1.27,3.36-.76.84.4,1.23,1.35,1.51,2.23,2.16,6.96,1.21,14.85,4.75,21.22.39.71,1.02,1.48,1.82,1.38.54-.07.96-.54,1.11-1.07s.1-1.08,0-1.62c-.55-3.3-2.19-6.34-2.85-9.62-.62-3.08-.35-6.28-.8-9.39-.31-2.16-1.15-4.49-3.1-5.46-1.43-.72-3.18-.52-4.65.11-1.47.63-2.74,1.64-4.03,2.6-4.62,3.41-9.75,6.14-14.26,8.08Z"/>
    <path class="cls-10" d="m161.57,489.41c-.44-.13-.95-.24-1.33.02-.38.26-.44.88-.13,1.23s.91.37,1.26.07.44-.87.2-1.32Z"/>
    <path class="cls-10" d="m196.31,475.43c5.56,3.17,11.17,6.36,16,10.56,4.83,4.2,8.9,9.52,10.56,15.7-3.3-2.38-5.48-5.97-8.29-8.91-5.38-5.63-12.95-8.8-18.21-14.54-.33-.36-.66-.75-.83-1.22s-.13-1.03.2-1.4,1.01-.4.56-.2Z"/>
    <path class="cls-10" d="m197.21,489.09c4.83,2.95,9.65,5.9,14.48,8.85,2.03,1.24,4.06,2.49,5.87,4.03,1.81,1.54,3.4,3.4,4.31,5.59.18.42.32.92.11,1.32-.24.45-.85.59-1.35.45s-.89-.5-1.27-.84c-3.51-3.12-7.35-5.88-11.44-8.2-2.35-1.34-4.79-2.53-6.98-4.11-2.2-1.58-4.17-3.59-5.19-6.09-.19-.47-.33-1.06,0-1.43.29-.32.82-.32,1.2-.12s.65.57.26.55Z"/>
    <path class="cls-10" d="m194.2,515.01c1.39-.34,2.67-1.14,3.59-2.25.29-.35.56-.81.38-1.23-.14-.33-.52-.5-.87-.5s-.69.14-1.02.28c-8.21,3.48-16.05,7.84-23.34,12.97-.37.26-.79.61-.75,1.07.04.47.53.75.97.94,5.43,2.42,11.09,4.9,17.03,4.71.46-.01,1.04-.17,1.08-.62.04-.49-.6-.71-1.09-.77-4.2-.53-8.31-1.79-12.09-3.69-.75-.38-1.61-1.02-1.45-1.84.11-.56.67-.91,1.17-1.19,5.46-2.99,10.82-6.51,16.39-7.88Z"/>
    <path class="cls-10" d="m194.03,531.06c-.27-.55-1.12-.65-1.55-.23s-.41,1.21.02,1.64,1.16.49,1.69.19c.33-.18.59-.51.63-.88s-.2-.78-.79-.73Z"/>
    <path class="cls-10" d="m220.14,517.49c-3.49,1.55-6.88,3.34-10.13,5.34-.21.13-.43.27-.56.49s-.13.53.06.69c.21.17.53.09.78,0,4.12-1.52,8.34-3.09,11.64-5.99-.35-.48-.96-.76-1.55-.72s-1.16.41-.25.2Z"/>
    <path class="cls-10" d="m207.52,524.88c-.59-.36-1.47-.09-1.76.54-.12.26-.13.61.08.81.25.24.65.14.98.03.24-.08.49-.16.69-.32s.36-.4.34-.65-.26-.49-.33-.42Z"/>
    <path class="cls-10" d="m186.74,502.58c.44-.53.39-1.35.06-1.95s-.9-1.05-1.46-1.45c-6.36-4.5-14.87-5.8-22.28-3.38.64,1.87,2.75,2.82,4.71,3.04s3.97-.07,5.91.32c4.22.86,7.46,4.83,11.76,5.11.98.06,2.1-.16,2.61-1s-.26-2.24-1.31-.69Z"/>
    <g>
      <path class="cls-8" d="m219.15,475.21s-26.82-3.89-28.65-2.68h0c-1.83,1.21-30.69,14.53-32.07,17.03-1.39,2.49,8.34,32.31,9.14,35.7.8,3.39,22.78,8.4,25.69,9.09,2.91.69,32.68-15.86,34.15-17.39s-6.94-41.56-8.25-41.74Z"/>
      <path class="cls-8" d="m190.26,473.19c2.43,11.47,4.86,22.95,7.28,34.42,9.48,2.64,18.87,5.55,28.18,8.72"/>
      <path class="cls-8" d="m197.36,508.33c-10.34,5-20.28,10.85-29.67,17.47"/>
    </g>
  </g>
  <g class="cls-15">
    <path class="cls-10" d="m80.53,538.65c-.28-.03-.56.2-.59.48s.18.57.46.61c.34.06.64-.2.88-.44,4.48-4.36,8.66-9.03,12.49-13.97.73-.95,1.67-2,2.86-1.91.92.07,1.64.82,2.21,1.54,4.51,5.72,6.46,13.42,12.04,18.1.62.52,1.48,1.02,2.19.63.48-.26.7-.85.66-1.39s-.3-1.04-.57-1.51c-1.7-2.88-4.32-5.13-6.11-7.96-1.68-2.66-2.58-5.74-4.12-8.48-1.06-1.9-2.68-3.78-4.85-3.99-1.59-.15-3.15.66-4.3,1.77-1.15,1.11-1.97,2.52-2.83,3.87-3.09,4.84-6.9,9.22-10.41,12.66Z"/>
    <path class="cls-10" d="m78.31,540.66c-.46.04-.98.12-1.24.49-.26.38-.1.98.32,1.19s.98.02,1.2-.39.1-.97-.29-1.3Z"/>
    <path class="cls-10" d="m105.73,515.16c6.33.96,12.71,1.93,18.72,4.12,6.02,2.18,11.72,5.69,15.49,10.86-3.93-1.04-7.26-3.6-10.93-5.34-7.04-3.33-15.24-3.57-22.21-7.04-.44-.22-.89-.46-1.21-.84s-.5-.92-.31-1.37.79-.74.45-.39Z"/>
    <path class="cls-10" d="m111.46,527.58c5.56,1.02,11.13,2.05,16.69,3.07,2.34.43,4.68.86,6.93,1.65s4.39,1.96,6.03,3.67c.32.33.63.74.58,1.19-.06.51-.59.86-1.1.9s-1.01-.15-1.49-.33c-4.4-1.66-8.97-2.85-13.62-3.55-2.67-.4-5.38-.65-7.99-1.33-2.61-.68-5.18-1.85-7.03-3.82-.35-.37-.69-.87-.51-1.34.15-.41.65-.59,1.08-.54s.81.3.44.42Z"/>
    <path class="cls-10" d="m117.95,552.86c1.18-.82,2.08-2.03,2.55-3.38.15-.43.23-.96-.08-1.28-.25-.26-.66-.28-.99-.15s-.6.38-.85.63c-6.42,6.2-12.17,13.07-17.14,20.48-.25.38-.51.85-.32,1.26.2.43.77.51,1.24.53,5.93.32,12.11.59,17.58-1.71.42-.18.92-.53.78-.97-.14-.47-.81-.44-1.29-.33-4.11,1.01-8.4,1.31-12.61.89-.84-.08-1.87-.37-2.01-1.2-.1-.57.29-1.09.67-1.53,4.02-4.75,7.77-9.96,12.48-13.24Z"/>
    <path class="cls-10" d="m123.55,567.9c-.45-.41-1.27-.21-1.53.34s.05,1.27.61,1.52,1.26.04,1.65-.43c.24-.29.37-.69.28-1.05s-.46-.66-1-.39Z"/>
    <path class="cls-10" d="m143.06,545.87c-2.7,2.7-5.22,5.58-7.54,8.62-.15.2-.31.41-.35.66s.07.54.31.62c.26.09.52-.11.73-.29,3.3-2.89,6.68-5.88,8.72-9.76-.5-.32-1.17-.37-1.71-.12s-.93.8-.16.27Z"/>
    <path class="cls-10" d="m133.93,557.29c-.68-.12-1.4.45-1.45,1.14-.02.29.1.62.37.73.32.13.66-.1.93-.32.2-.16.4-.33.53-.54s.19-.5.08-.73-.42-.37-.46-.27Z"/>
    <path class="cls-10" d="m106.53,543.93c.22-.66-.12-1.4-.64-1.84s-1.21-.66-1.88-.83c-7.55-1.92-15.96-.08-22.01,4.83,1.26,1.52,3.58,1.65,5.49,1.15s3.68-1.49,5.63-1.82c4.25-.71,8.69,1.84,12.81.55.94-.29,1.91-.9,2.08-1.87.17-.97-1.05-2-1.47-.17Z"/>
    <g>
      <path class="cls-8" d="m126.97,506.75s-26.43,5.99-27.71,7.77h0c-1.28,1.78-23.43,24.57-23.83,27.4-.4,2.83,19.37,27.17,21.33,30.05,1.96,2.87,24.28-.33,27.24-.73,2.96-.4,24.82-26.53,25.64-28.48.82-1.95-21.38-36.31-22.67-36.01Z"/>
      <path class="cls-8" d="m99.27,515.24c6.38,9.84,12.76,19.68,19.14,29.52,9.79-.94,19.61-1.59,29.44-1.96"/>
      <path class="cls-8" d="m118.5,545.48c-7.86,8.38-15.04,17.4-21.43,26.95"/>
    </g>
  </g>
  <g class="cls-15">
    <path class="cls-10" d="m174.93,449.67c-.28.14-.41.52-.28.8s.5.43.79.31c.35-.14.49-.56.58-.93,1.71-6.76,2.95-13.64,3.7-20.58.14-1.33.41-2.88,1.6-3.49.92-.47,2.03-.18,3,.17,7.63,2.8,13.98,8.98,22.02,10.16.89.13,2,.1,2.45-.68.3-.52.17-1.22-.19-1.71s-.89-.82-1.43-1.1c-3.3-1.75-7.1-2.35-10.46-3.99-3.15-1.54-5.8-3.94-8.87-5.65-2.12-1.18-4.76-2.02-6.94-.95-1.6.79-2.61,2.47-3.05,4.2s-.4,3.54-.43,5.33c-.1,6.41-1.16,12.8-2.49,18.11Z"/>
    <path class="cls-10" d="m174,452.88c-.41.31-.86.68-.89,1.19-.03.52.48.99,1,.95s.94-.55.92-1.07-.47-.98-1.03-1.07Z"/>
    <path class="cls-10" d="m185.14,412.62c6.57-2.79,13.2-5.59,20.19-7.03s14.46-1.45,21.07,1.26c-4.34,1.31-9,.82-13.51,1.32-8.63.95-16.57,5.52-25.22,6.29-.55.05-1.11.08-1.64-.09s-1.01-.58-1.1-1.12.32-1.16.21-.63Z"/>
    <path class="cls-10" d="m197.85,421.07c5.88-2.28,11.77-4.56,17.65-6.84,2.47-.96,4.95-1.92,7.55-2.48,2.59-.56,5.31-.71,7.88-.03.49.13,1.03.33,1.25.8.24.52-.05,1.16-.52,1.5s-1.04.45-1.61.56c-5.15,1-10.19,2.54-15.02,4.59-2.78,1.18-5.49,2.53-8.37,3.41-2.88.88-6,1.27-8.91.48-.54-.15-1.16-.42-1.27-.98-.09-.47.27-.94.71-1.14s.94-.19.66.14Z"/>
    <path class="cls-10" d="m218.79,441.29c.64-1.47.8-3.14.44-4.71-.11-.49-.34-1.04-.83-1.17-.38-.1-.79.12-1.03.44s-.34.71-.44,1.09c-2.47,9.64-3.92,19.54-4.31,29.48-.02.51,0,1.11.44,1.39.44.29,1.03.04,1.49-.22,5.82-3.17,11.85-6.51,15.7-11.91.3-.41.56-1.04.18-1.38-.41-.36-1.03.05-1.42.44-3.32,3.37-7.21,6.16-11.46,8.22-.85.41-1.99.74-2.61.03-.42-.48-.36-1.21-.26-1.84,1.04-6.86,1.56-14,4.11-19.87Z"/>
    <path class="cls-10" d="m232.91,452.31c-.67-.13-1.33.55-1.26,1.22s.8,1.18,1.47,1.09,1.22-.7,1.32-1.37c.06-.41-.05-.87-.35-1.16s-.82-.35-1.18.21Z"/>
    <path class="cls-10" d="m238.56,419.98c-.99,4.14-1.7,8.36-2.12,12.6-.03.28-.05.57.05.83s.38.47.65.41c.3-.07.43-.41.52-.7,1.44-4.68,2.91-9.49,2.58-14.37-.66-.01-1.33.33-1.69.89s-.42,1.3,0,.35Z"/>
    <path class="cls-10" d="m236.56,436.16c-.72.28-1.07,1.24-.71,1.93.15.29.45.53.77.48.38-.06.57-.48.7-.85.09-.27.19-.54.19-.83s-.11-.58-.35-.74-.61-.1-.6,0Z"/>
    <path class="cls-10" d="m202.73,439.49c-.17-.75-.93-1.26-1.69-1.38-.76-.12-1.54.09-2.27.31-8.3,2.58-15.21,9.26-18.08,17.46,2.09.7,4.36-.53,5.89-2.12,1.52-1.59,2.63-3.57,4.28-5.02,3.62-3.16,9.33-3.34,12.49-6.96.72-.83,1.28-1.97.88-2.99s-2.17-1.29-1.5.69Z"/>
    <g>
      <path class="cls-8" d="m200.41,392.22s-21.61,21.14-21.78,23.58h0c-.17,2.44-7.9,37.04-6.63,39.96,1.27,2.92,34.29,14.49,37.84,16.07,3.55,1.58,22.87-14.51,25.45-16.62,2.58-2.11,8.07-39.71,7.71-42.04-.37-2.33-41.54-21.99-42.59-20.95Z"/>
      <path class="cls-8" d="m179.06,416.47c11.81,5.62,23.63,11.23,35.44,16.85,8.75-6.61,17.7-12.98,26.82-19.07"/>
      <path class="cls-8" d="m215.01,433.97c-2.57,12.56-4.11,25.32-4.61,38.13"/>
    </g>
  </g>
  <g>
    <path class="cls-7" d="m288.58,184.08c0,.56-.06,1.12-.19,1.67h0c-3.87,17.15-66.46,30.78-143.1,30.78S6.06,202.9,2.19,185.76h0c-.12-.56-.19-1.12-.19-1.68,0-17.92,64.15-32.44,143.29-32.44s143.29,14.52,143.29,32.44Z"/>
    <path class="cls-7" d="m288.39,185.76l-43.79,385.58c0,12.42-44.46,22.48-99.31,22.48s-99.31-10.06-99.31-22.48L2.19,185.76c3.87,17.14,66.46,30.77,143.1,30.77s139.23-13.63,143.1-30.77Z"/>
    <polyline class="cls-7" points="2.19 185.76 2.19 185.74 2 184.08"/>
    <polyline class="cls-7" points="288.39 185.76 288.39 185.74 288.58 184.08"/>
  </g>
  <polyline class="cls-7" points="2.19 185.76 2.19 185.74 2 184.08"/>
  <polyline class="cls-7" points="288.39 185.76 288.39 185.74 288.58 184.08"/>
  <path class="cls-7" d="m288.39,185.76l-43.79,385.58c0,12.42-44.46,22.48-99.31,22.48s-99.31-10.06-99.31-22.48L2.19,185.76c3.87,17.14,66.46,30.77,143.1,30.77s139.23-13.63,143.1-30.77Z"/>
  <g class="cls-14">
    <path class="cls-6" d="m10.69,260.66l35.29,310.68c0,12.42,44.46,22.48,99.31,22.48s99.31-10.06,99.31-22.48l36-316.99s-15.77,14.8-44.01,14.8c-37.3,0-42.82-12.13-67.94-14.55-24.98-2.41-38.05,19.5-55.26,17.84-36.66-3.54-33.56-28.18-63.09-28.65-26.37-.42-37.73,16.75-39.61,16.87Z"/>
  </g>
  <path class="cls-7" d="m288.58,184.08c0,.56-.06,1.12-.19,1.67h0c-3.87,17.15-66.46,30.78-143.1,30.78S6.06,202.9,2.19,185.76h0c-.12-.56-.19-1.12-.19-1.68"/>
</svg>