<?xml version="1.0" encoding="UTF-8"?>
<svg id="_레이어_3" data-name="레이어 3" xmlns="http://www.w3.org/2000/svg" viewBox="0 0 1080 1080">
  <defs>
    <style>
      .cls-1, .cls-2 {
        fill: #f8ffa9;
      }

      .cls-3, .cls-4, .cls-5, .cls-6, .cls-7 {
        stroke-width: 4px;
      }

      .cls-3, .cls-4, .cls-5, .cls-6, .cls-7, .cls-8, .cls-9, .cls-10, .cls-11, .cls-12, .cls-13, .cls-2 {
        stroke-miterlimit: 10;
      }

      .cls-3, .cls-4, .cls-5, .cls-6, .cls-7, .cls-8, .cls-9, .cls-11, .cls-13, .cls-2 {
        stroke: #000;
      }

      .cls-3, .cls-12 {
        fill: #fff;
      }

      .cls-4 {
        fill: #f73b3b;
      }

      .cls-5 {
        fill: #0cba00;
      }

      .cls-6 {
        fill: #f7ffa1;
      }

      .cls-7 {
        fill: none;
      }

      .cls-14 {
        opacity: .9;
      }

      .cls-15 {
        opacity: .77;
      }

      .cls-8, .cls-9, .cls-10, .cls-11, .cls-12, .cls-13, .cls-2 {
        stroke-width: 3px;
      }

      .cls-8, .cls-10 {
        fill: #d1faff;
      }

      .cls-9 {
        fill: #d4faff;
      }

      .cls-10, .cls-12 {
        stroke: #fff;
      }

      .cls-11 {
        fill: #fdffc4;
      }

      .cls-13 {
        fill: #f7ff00;
      }
    </style>
  </defs>
  <path class="cls-2" d="m321.78,499.62c1.61-14.87,12.82-27.35,26.04-34.36,13.22-7.01,28.32-9.44,43.13-11.5,85.02-11.81,171.54-14.72,256.76-4.4,17.75,2.15,35.65,4.93,52.15,11.8,16.51,6.87,36.3,16.57,44.6,32.41"/>
  <polyline class="cls-1" points="323.98 499.53 342.63 674.73 722.38 679.62 744.09 493.41"/>
  <g class="cls-15">
    <path class="cls-12" d="m358.32,540.17c-.13.4.1.88.5,1.03s.89-.07,1.04-.46c.19-.47-.08-.99-.35-1.43-4.87-7.99-10.29-15.64-16.22-22.87-1.14-1.39-2.37-3.1-1.84-4.81.41-1.32,1.73-2.11,2.98-2.71,9.84-4.67,21.73-4.94,30.41-11.53.97-.73,1.97-1.82,1.65-2.99-.22-.78-1.01-1.3-1.81-1.42s-1.62.09-2.39.33c-4.77,1.52-8.92,4.59-13.65,6.26-4.44,1.57-9.22,1.85-13.74,3.18-3.13.92-6.4,2.66-7.43,5.75-.76,2.27-.09,4.82,1.15,6.86,1.24,2.05,3.02,3.71,4.7,5.41,6.03,6.11,11.15,13.13,14.99,19.4Z"/>
    <path class="cls-12" d="m360.52,544.08c-.09.68-.16,1.46.31,1.97.47.51,1.4.47,1.85-.07s.36-1.42-.16-1.88c-.52-.46-1.38-.47-1.99-.02Z"/>
    <path class="cls-12" d="m332.46,495.59c3.51-8.91,7.05-17.88,12.24-25.93,5.19-8.05,12.2-15.2,21-18.97-2.82,5.39-7.67,9.39-11.43,14.17-7.19,9.15-10.28,21.04-17.67,30.04-.47.57-.97,1.14-1.62,1.49s-1.5.42-2.11,0-.81-1.4-.41-.79Z"/>
    <path class="cls-12" d="m352.5,491.37c3.35-7.77,6.69-15.54,10.04-23.32,1.41-3.26,2.82-6.54,4.72-9.55s4.32-5.75,7.37-7.57c.59-.35,1.29-.67,1.93-.44.72.26,1.06,1.14.95,1.9s-.55,1.42-.97,2.06c-3.88,5.86-7.15,12.14-9.72,18.68-1.48,3.76-2.74,7.63-4.61,11.21-1.87,3.58-4.43,6.93-7.92,8.98-.65.38-1.49.71-2.12.29-.54-.36-.65-1.14-.43-1.75s.7-1.08.76-.5Z"/>
    <path class="cls-12" d="m391.51,490.34c-.81-1.99-2.26-3.72-4.09-4.85-.57-.36-1.32-.65-1.9-.3-.45.27-.63.87-.55,1.39s.35.99.63,1.45c6.9,11.42,15.01,22.1,24.16,31.82.47.5,1.07,1.03,1.74.88.69-.16,1-.95,1.19-1.63,2.44-8.55,4.9-17.46,3.36-26.21-.12-.67-.47-1.51-1.15-1.47-.73.05-.92,1.04-.91,1.77.11,6.34-.88,12.69-2.9,18.69-.4,1.19-1.17,2.6-2.42,2.53-.86-.05-1.49-.79-2.01-1.48-5.59-7.44-11.93-14.65-15.15-22.6Z"/>
    <path class="cls-12" d="m415.31,487.18c-.75.52-.73,1.79-.01,2.35s1.88.34,2.43-.38c.55-.73.48-1.82-.07-2.55-.34-.45-.88-.77-1.44-.75s-1.11.46-.91,1.33Z"/>
    <path class="cls-12" d="m389.69,451.4c3.03,4.84,6.4,9.48,10.06,13.86.24.29.5.58.84.73s.81.08,1-.24c.21-.35.02-.8-.18-1.16-3.12-5.78-6.35-11.69-11.33-15.97-.64.62-.93,1.58-.74,2.45s.85,1.63.34.32Z"/>
    <path class="cls-12" d="m403.3,468.51c-.4.95.18,2.19,1.17,2.49.42.13.94.07,1.18-.29.29-.42.07-1-.16-1.46-.17-.34-.34-.69-.61-.96s-.66-.44-1.03-.36-.67.49-.55.58Z"/>
    <path class="cls-12" d="m374.69,504.01c-.88-.54-2.08-.3-2.9.32s-1.36,1.55-1.83,2.47c-5.32,10.37-5.43,23.25-.28,33.7,2.63-1.34,3.6-4.67,3.5-7.62-.09-2.95-.95-5.87-.78-8.82.38-6.44,5.58-12.07,5.07-18.49-.12-1.46-.68-3.08-2.03-3.65s-3.27.86-.74,2.09Z"/>
    <g>
      <path class="cls-9" d="m327.29,461.83s-.07,40.54,2.1,43h0c2.18,2.46,28.02,42.36,32.01,43.88,3.99,1.53,46.08-19.19,50.92-21.1,4.85-1.91,7.61-35.52,8.01-39.97s-30.41-45.04-32.99-46.87c-2.57-1.84-60.07,19.09-60.06,21.07Z"/>
      <path class="cls-9" d="m330.43,505.03c16.47-6.03,32.95-12.06,49.42-18.08,1.89-14.59,4.21-29.12,6.94-43.58"/>
      <path class="cls-9" d="m380.95,487.08c9.6,14.26,20.36,27.73,32.16,40.23"/>
    </g>
  </g>
  <g>
    <path class="cls-13" d="m636.93,529.14c42.14-8.03,90.4-33.14,99.02-82.33,8.09-46.19-36.06-80.71-85.99-55.15-33.9,17.35-15.59,37.9-91.33,52.65-29.5,5.74-62.9,25-82.04,61.78-12.91,24.81-11.4,106.79,38.22,97.34,43.08-8.21,31.66-57.05,122.12-74.29Z"/>
    <path class="cls-11" d="m634.45,520.16c39.69-7.95,82.31-28.36,91.47-71.54,8.61-40.54-30.46-73.34-72.6-47.61-30.63,18.71-17.46,37.3-88.78,51.87-27.78,5.68-58.25,19.65-77.02,52.21-12.66,21.96-14.42,105.06,29.98,87.76,35.2-13.72,31.76-55.61,116.94-72.69Z"/>
    <path class="cls-11" d="m603.72,470.88s22.11-29.52,84.12-64.99c9.88-5.65-25.37-1.97-31.08,1.01-7.35,3.83-58.61,66.88-53.04,63.99Z"/>
    <path class="cls-11" d="m612.58,445.05s-14.02,20.96-15.69,23.78c-.79,1.33-11.25-15.05-8.92-15.67,7.98-2.11,25.7-10.43,24.6-8.11Z"/>
    <path class="cls-11" d="m578.81,490.17c.19-.22,6.71-5.72,6.69-6.01-.05-.61-93.66,45.27-96.8,58.56-1.02,4.33-2.92,24.83,6.3,35.75,5.12,6.07,14.32,5.09,18.16-1.65,0,0,13.58-28.47,20.92-37.01,32.85-38.3,42.03-46.49,44.74-49.64Z"/>
    <path class="cls-11" d="m524.66,580.79c19.21-10.66,33.14-52.3,87.89-63.98,2.16-.46-7-21.7-13.14-27.7-5.07-4.96-23.1,15.2-33.14,26.64-2.4,2.74-23.65,22.68-29.6,31.66-13.2,19.92-25.29,40.76-12,33.38Z"/>
    <path class="cls-11" d="m608.73,483.09c-2.55,2.25,10.26,30.06,15.9,29.27,2.74-.38,28.18-3.77,48.2-12.97,21.15-9.72,44.95-38.21,40.77-36.7-88.9,32.13-98.47,14.77-104.86,20.4Z"/>
    <path class="cls-11" d="m610.61,473.65c4.38,6.99,94.92-8.89,104.91-24.3,9.99-15.42-6.68-37.67-15.62-41.15-8.94-3.48-92.17,60.85-89.29,65.45Z"/>
    <path class="cls-11" d="m588.63,471.66s-6.37-14.56-9.25-15.01c-2.88-.45-27.64,5.07-27.14,6.15s38.6,11.44,36.39,8.86Z"/>
    <path class="cls-11" d="m580.41,477.76s-37.59-10.52-43.66-7.87c-42.85,18.67-51.96,65.3-50.93,64.17,21.69-23.76,96.87-57.02,94.59-56.3Z"/>
  </g>
  <g>
    <path class="cls-13" d="m441.86,552.21c22.63,39.62,64.54,79.51,117.01,71.19,49.26-7.81,68.75-64.13,25.79-105.54-29.16-28.11-43.51-2.6-84.49-73.7-15.96-27.69-46.87-54.64-90.47-61.21-29.41-4.43-111.36,25.4-84.73,72.05,23.13,40.51,68.32,12.16,116.89,97.21Z"/>
    <path class="cls-11" d="m450.04,546.61c21.7,37.18,56.95,73.01,103.55,67.33,43.76-5.33,63.27-55.96,22.83-89.47-29.39-24.36-43.55-4.69-82.83-71.41-15.3-25.99-39.88-51.82-79.11-59.46-26.46-5.15-110.67,21.76-77.94,60.45,25.95,30.67,66.91,12.75,113.49,92.55Z"/>
    <path class="cls-11" d="m489.01,498.69s37.33,12.05,94.42,62.19c9.1,7.99-6.78-26.2-11.74-30.92-6.39-6.08-87.52-35.87-82.68-31.27Z"/>
    <path class="cls-11" d="m518.05,498.69s-25.92-6.87-29.33-7.57c-1.61-.33,11.26-16.52,12.69-14.38,4.88,7.3,19.36,22.25,16.65,21.95Z"/>
    <path class="cls-11" d="m461,480.29c.29.11,8.07,4.78,8.35,4.66.59-.26-77.87-78.59-92.32-77.17-4.71.47-25.99,5.63-33.79,18.68-4.33,7.25-.18,16.16,7.93,17.7,0,0,33.33,3.84,44.46,8.26,49.87,19.83,61.27,26.24,65.39,27.87Z"/>
    <path class="cls-11" d="m351.15,457.09c17.36,15.65,64.05,15.28,94.7,66.33,1.21,2.01,19.42-14.53,23.33-22.79,3.23-6.82-23.27-17.99-38.24-24.15-3.59-1.47-30.98-15.96-42.07-18.85-24.59-6.41-49.73-11.37-37.72-.54Z"/>
    <path class="cls-11" d="m478.46,507.95c-3.15-1.79-26.69,20.7-23.96,26.1,1.33,2.62,13.52,27.04,29.69,44.01,17.07,17.92,53.95,32.03,50.99,28.35-63.01-78.34-48.85-93.96-56.73-98.45Z"/>
    <path class="cls-11" d="m488.6,506.58c-5.53,6.82,41.71,92.42,60.66,97.15,18.96,4.73,35.59-19.73,36-29.92.41-10.19-93.03-71.71-96.66-67.23Z"/>
    <path class="cls-11" d="m483.02,483.78s12.45-11.43,11.91-14.49c-.55-3.05-14.65-26.05-15.55-25.18-.9.88,1.81,42.78,3.64,39.67Z"/>
    <path class="cls-11" d="m474.03,477.62s-2.4-41.44-7.15-46.64c-33.58-36.66-83.63-29.73-82.14-29.08,31.39,13.62,90.81,77.77,89.29,75.72Z"/>
  </g>
  <g>
    <path class="cls-13" d="m525.88,946.04c36.62-5.84,78.97-26.28,87.69-68.56,8.19-39.7-29.05-70.67-72.86-49.88-29.74,14.11-14.46,32.34-80.27,43.12-25.63,4.2-54.99,19.97-72.49,51.24-11.8,21.1-12.62,91.97,30.49,85.09,37.44-5.97,28.84-48.47,107.44-61.01Z"/>
    <path class="cls-11" d="m523.97,938.22c34.49-5.84,71.85-22.37,80.89-59.44,8.49-34.8-24.41-64.16-61.49-43.02-26.95,15.37-16.05,31.77-78.05,42.51-24.15,4.18-50.84,15.46-67.9,43.11-11.51,18.65-15.19,90.4,23.62,76.6,30.77-10.94,28.88-47.22,102.93-59.76Z"/>
    <path class="cls-11" d="m498.7,894.84s19.87-24.93,74.37-53.97c8.69-4.63-21.87-2.36-26.88.06-6.45,3.12-52.38,56.26-47.49,53.9Z"/>
    <path class="cls-11" d="m507.02,872.76s-12.66,17.74-14.17,20.13c-.72,1.13-9.33-13.3-7.3-13.77,6.95-1.61,22.47-8.34,21.47-6.36Z"/>
    <path class="cls-11" d="m476.67,910.87c.17-.18,5.95-4.77,5.93-5.02-.03-.52-82.1,36.68-85.16,48.08-1,3.72-3.17,21.38,4.51,31.06,4.27,5.37,12.24,4.77,15.73-.95,0,0,12.48-24.24,19.03-31.44,29.38-32.24,37.52-39.07,39.95-41.73Z"/>
    <path class="cls-11" d="m427.53,987.75c16.88-8.71,29.99-44.33,77.59-52.99,1.87-.34-5.48-18.93-10.64-24.27-4.26-4.41-20.35,12.53-29.33,22.16-2.15,2.3-21.02,18.98-26.4,26.58-11.92,16.86-22.91,34.56-11.23,28.53Z"/>
    <path class="cls-11" d="m502.71,905.52c-2.26,1.88,8.09,26.23,12.97,25.7,2.38-.26,24.44-2.53,41.98-9.96,18.52-7.85,39.83-31.84,36.18-30.65-77.64,25.45-85.46,10.2-91.13,14.91Z"/>
    <path class="cls-11" d="m504.58,897.41c3.6,6.16,82.24-5.21,91.27-18.27,9.03-13.06-4.8-32.72-12.43-35.96s-81.21,50.18-78.84,54.23Z"/>
    <path class="cls-11" d="m485.64,895.12s-5.12-12.75-7.6-13.21c-2.48-.46-24.01,3.67-23.61,4.6.41.94,33.05,10.89,31.21,8.6Z"/>
    <path class="cls-11" d="m478.38,900.19s-32.2-10.06-37.52-7.93c-37.51,15.02-46.59,55.07-45.67,54.12,19.36-19.96,85.18-46.75,83.19-46.19Z"/>
  </g>
  <g>
    <path class="cls-13" d="m533.9,970.98c34.94,22.65,85.44,37.96,123.92,10.85,36.12-25.46,27.81-77.84-24.17-93.96-35.29-10.95-35.95,14.94-98.95-25.55-24.54-15.77-60.73-25.11-98.43-13.29-25.43,7.98-78.38,63.71-37.24,90.37,35.72,23.15,59.87-17.04,134.88,31.58Z"/>
    <path class="cls-11" d="m538.07,963.34c33.17,21.06,76.6,35.77,111.5,13.04,32.77-21.34,26.9-69.2-19.71-80.03-33.88-7.87-36.86,13.3-96.65-24.38-23.29-14.67-53.94-25.6-88.59-16.34-23.38,6.25-79.37,60.55-36.73,78.5,33.8,14.24,58.99-16.01,130.18,29.2Z"/>
    <path class="cls-11" d="m548.92,910.02s35.01-5.01,102.01,12.52c10.68,2.79-16.56-18.17-22.53-19.98-7.7-2.33-85.31,5.69-79.48,7.46Z"/>
    <path class="cls-11" d="m572.17,898.67s-23.67,4.67-26.7,5.45c-1.43.37,2-17.53,4.05-16.39,7,3.89,24.95,10.12,22.65,10.94Z"/>
    <path class="cls-11" d="m518.68,906.34c.28-.02,8.49.64,8.66.44.36-.44-95.73-32.03-106.69-25.25-3.58,2.21-18.42,14.63-19.13,28.05-.39,7.45,6.72,12.91,13.86,10.97,0,0,28.32-9.97,39.1-10.81,48.35-3.73,60.2-3.09,64.19-3.4Z"/>
    <path class="cls-11" d="m420.87,930.84c20.54,5.65,57.78-12.89,103.99,15.7,1.82,1.13,9.37-19.14,9-27.23-.31-6.68-26.27-5.2-40.88-4.24-3.5.23-31.58-.58-41.69,1.46-22.41,4.52-44.65,10.4-30.43,14.31Z"/>
    <path class="cls-11" d="m544.4,921.5c-3.28-.19-12.58,26.89-8.1,30.1,2.18,1.56,22.31,16.21,42.46,23.37,21.28,7.57,56.8,4.37,52.87,2.6-83.72-37.64-79.02-55.59-87.23-56.07Z"/>
    <path class="cls-11" d="m551.94,916.45c-1.53,7.58,72.64,57.15,89.83,53.5,17.19-3.65,20.12-29.59,16.12-37.85-4-8.26-104.95-20.63-105.95-15.65Z"/>
    <path class="cls-11" d="m537.79,900.51s5.11-13.95,3.38-16.17c-1.73-2.21-22.79-14.98-23.14-13.93-.35,1.05,19.62,33.29,19.76,30.1Z"/>
    <path class="cls-11" d="m527.98,899.12s-19.52-32-25.54-34.27c-42.45-16.01-79.59,9.06-78.12,8.99,30.92-1.44,105.74,26.32,103.65,25.28Z"/>
  </g>
  <g class="cls-15">
    <path class="cls-10" d="m400.52,528.78c-.18.38,0,.89.38,1.08s.89.03,1.09-.34c.25-.45.04-1-.17-1.46-3.89-8.51-8.38-16.74-13.41-24.62-.96-1.51-1.99-3.35-1.26-4.99.56-1.26,1.97-1.89,3.28-2.34,10.33-3.48,22.16-2.35,31.55-7.87,1.05-.61,2.18-1.58,1.99-2.77-.12-.8-.85-1.41-1.63-1.63s-1.62-.1-2.42.05c-4.92.95-9.4,3.51-14.29,4.61-4.59,1.03-9.38.75-14.02,1.54-3.21.55-6.67,1.88-8.06,4.84-1.02,2.17-.66,4.77.33,6.95s2.56,4.04,4.03,5.93c5.27,6.78,9.53,14.35,12.6,21.03Z"/>
    <path class="cls-10" d="m402.24,532.91c-.17.67-.33,1.43.08,1.99.41.57,1.33.63,1.84.15s.52-1.37.06-1.89-1.31-.62-1.98-.25Z"/>
    <path class="cls-10" d="m380.08,481.47c4.53-8.43,9.11-16.93,15.21-24.31,6.1-7.38,13.91-13.66,23.09-16.37-3.44,5.02-8.72,8.42-13.02,12.72-8.22,8.24-12.69,19.68-21.08,27.75-.53.51-1.1,1.02-1.79,1.29s-1.54.24-2.09-.25-.64-1.49-.32-.84Z"/>
    <path class="cls-10" d="m400.47,479.63c4.24-7.32,8.47-14.65,12.71-21.97,1.78-3.08,3.57-6.17,5.81-8.93s4.96-5.2,8.21-6.65c.63-.28,1.36-.52,1.97-.21.69.34.91,1.26.72,2s-.71,1.35-1.21,1.93c-4.55,5.37-8.52,11.21-11.85,17.41-1.91,3.56-3.62,7.25-5.89,10.59-2.28,3.34-5.21,6.36-8.92,7.98-.69.3-1.57.53-2.14.04-.49-.42-.51-1.21-.22-1.79s.83-.99.81-.41Z"/>
    <path class="cls-10" d="m439.34,483.19c-.57-2.07-1.81-3.96-3.49-5.29-.53-.42-1.23-.8-1.85-.53-.48.22-.72.79-.71,1.32s.24,1.03.45,1.51c5.51,12.15,12.31,23.72,20.25,34.44.41.55.94,1.15,1.62,1.08.7-.07,1.1-.82,1.38-1.48,3.43-8.2,6.92-16.76,6.42-25.63-.04-.68-.29-1.56-.97-1.59-.74-.04-1.03.92-1.11,1.65-.64,6.3-2.37,12.5-5.08,18.22-.54,1.14-1.46,2.44-2.7,2.23-.85-.15-1.39-.96-1.82-1.71-4.67-8.05-10.12-15.95-12.39-24.23Z"/>
    <path class="cls-10" d="m463.35,482.86c-.81.42-.93,1.69-.29,2.33s1.82.56,2.45-.1.69-1.75.23-2.54c-.29-.48-.78-.87-1.34-.92s-1.16.32-1.06,1.21Z"/>
    <path class="cls-10" d="m442.11,444.31c2.44,5.16,5.24,10.16,8.36,14.95.2.31.42.64.75.82s.79.18,1.02-.12c.25-.32.11-.79-.04-1.17-2.42-6.1-4.93-12.36-9.37-17.19-.71.54-1.11,1.46-1.02,2.35.09.89.65,1.71.3.36Z"/>
    <path class="cls-10" d="m453.62,462.91c-.51.9-.08,2.2.87,2.61.4.17.92.18,1.21-.15.34-.39.19-.98.02-1.47-.13-.36-.26-.72-.5-1.02s-.61-.52-.98-.48-.72.4-.62.51Z"/>
    <path class="cls-10" d="m421.03,494.79c-.81-.64-2.03-.54-2.92-.02s-1.53,1.38-2.11,2.24c-6.5,9.67-8.13,22.45-4.25,33.43,2.77-1.02,4.12-4.21,4.38-7.16.26-2.94-.25-5.94.27-8.85,1.13-6.35,6.96-11.33,7.21-17.77.06-1.47-.32-3.14-1.59-3.87s-3.34.47-.98,1.99Z"/>
    <g>
      <path class="cls-8" d="m378.92,447.32s-4.84,40.25-2.97,42.95h0c1.87,2.7,22.85,45.36,26.63,47.35,3.78,1.98,48.02-13.64,53.05-14.96,5.04-1.32,11.73-34.38,12.65-38.75.92-4.38-24.9-48.3-27.24-50.43-2.34-2.13-61.9,11.89-62.12,13.85Z"/>
      <path class="cls-8" d="m376.95,490.6c17.07-4.05,34.14-8.1,51.21-12.14,3.6-14.27,7.61-28.43,12.02-42.46"/>
      <path class="cls-8" d="m429.23,478.71c7.85,15.29,16.96,29.93,27.2,43.73"/>
    </g>
  </g>
  <g class="cls-15">
    <path class="cls-10" d="m555.52,504.63c-.42.06-.74.49-.69.91s.46.76.88.72c.51-.04.85-.52,1.12-.95,4.94-7.94,9.33-16.23,13.13-24.77.73-1.64,1.7-3.51,3.47-3.8,1.36-.23,2.67.6,3.76,1.45,8.6,6.69,14.19,17.18,23.98,21.97,1.09.53,2.51.94,3.41.13.6-.55.71-1.49.45-2.26s-.81-1.41-1.38-1.99c-3.51-3.58-8.11-5.9-11.73-9.37-3.4-3.26-5.8-7.4-9.02-10.84-2.23-2.38-5.25-4.52-8.48-4.05-2.37.35-4.34,2.08-5.61,4.11s-1.95,4.36-2.72,6.63c-2.74,8.14-6.7,15.87-10.58,22.11Z"/>
    <path class="cls-10" d="m553.02,508.34c-.65.22-1.38.52-1.62,1.16-.25.65.21,1.46.89,1.62s1.43-.32,1.61-.99-.2-1.44-.88-1.79Z"/>
    <path class="cls-10" d="m583.69,461.47c9.53-.88,19.14-1.75,28.66-.74,9.52,1.01,19.06,4.06,26.39,10.22-6.08-.09-11.83-2.63-17.8-3.83-11.41-2.31-23.42.28-34.78-2.26-.72-.16-1.46-.35-2.06-.78s-1.05-1.15-.95-1.88.89-1.35.52-.73Z"/>
    <path class="cls-10" d="m596.47,477.46c8.45-.51,16.89-1.02,25.34-1.53,3.55-.21,7.11-.43,10.65-.09,3.54.34,7.08,1.27,10.07,3.17.58.37,1.18.85,1.27,1.53.1.76-.54,1.46-1.27,1.7s-1.52.15-2.28.06c-6.98-.83-14.05-.92-21.06-.27-4.03.37-8.04.99-12.09.93-4.04-.06-8.18-.83-11.58-3.03-.63-.41-1.31-1.01-1.22-1.76.08-.64.73-1.09,1.37-1.17s1.28.14.79.45Z"/>
    <path class="cls-10" d="m614.96,511.83c1.42-1.62,2.3-3.69,2.49-5.83.06-.67-.01-1.47-.58-1.83-.45-.28-1.06-.17-1.49.14s-.73.76-1.01,1.21c-7.09,11.3-12.98,23.35-17.54,35.89-.23.64-.44,1.42,0,1.95.45.55,1.3.46,1.99.33,8.73-1.67,17.79-3.48,24.92-8.8.55-.41,1.14-1.1.79-1.69-.38-.63-1.34-.35-1.99-.01-5.61,2.95-11.73,4.92-18,5.82-1.25.18-2.85.13-3.35-1.02-.35-.79.04-1.69.42-2.46,4.13-8.34,7.71-17.25,13.37-23.7Z"/>
    <path class="cls-10" d="m628.49,531.67c-.8-.44-1.93.15-2.1,1.05s.54,1.83,1.43,1.99,1.84-.39,2.24-1.21c.25-.51.3-1.13.02-1.62s-.91-.79-1.6-.21Z"/>
    <path class="cls-10" d="m648.91,492.68c-2.96,4.89-5.58,9.98-7.85,15.22-.15.34-.3.71-.27,1.08s.29.76.67.79c.41.03.72-.34.96-.68,3.76-5.39,7.58-10.93,9.16-17.3-.84-.29-1.83-.12-2.52.45-.69.56-1.07,1.49-.14.45Z"/>
    <path class="cls-10" d="m639.75,512.54c-1.03.07-1.88,1.15-1.7,2.17.08.43.36.87.79.93.51.07.92-.39,1.23-.8.23-.3.46-.62.58-.98s.1-.79-.14-1.09-.74-.38-.76-.23Z"/>
    <path class="cls-10" d="m595.18,502.97c.08-1.03-.67-1.99-1.6-2.45s-2-.52-3.03-.53c-11.65-.09-23.2,5.61-30.22,14.91,2.38,1.75,5.79,1.11,8.38-.3,2.6-1.41,4.81-3.49,7.52-4.66,5.92-2.56,13.29-.45,18.8-3.79,1.25-.76,2.44-2,2.35-3.46s-2.24-2.53-2.2.28Z"/>
    <g>
      <path class="cls-8" d="m611.51,441.65s-36.24,18.18-37.45,21.23h0c-1.21,3.05-25.21,44.09-24.78,48.34.43,4.25,37.88,32.51,41.76,35.98,3.88,3.47,35.14-9.19,39.3-10.84,4.16-1.65,26.53-47.43,27.01-50.55.48-3.12-44.08-45.06-45.84-44.15Z"/>
      <path class="cls-8" d="m574.34,463.9c12.8,12,25.59,24,38.39,35.99,13.88-4.87,27.9-9.35,42.04-13.41"/>
      <path class="cls-8" d="m613.12,500.93c-8.41,14.99-15.6,30.66-21.45,46.82"/>
    </g>
  </g>
  <g class="cls-15">
    <path class="cls-10" d="m462.83,546.74c-.4.13-.66.6-.55,1s.57.68.98.58c.5-.12.76-.64.96-1.11,3.68-8.6,6.77-17.45,9.22-26.48.47-1.73,1.15-3.72,2.85-4.29,1.31-.43,2.73.19,3.94.86,9.52,5.31,16.63,14.83,27.03,18.08,1.16.36,2.63.55,3.39-.39.51-.63.47-1.58.11-2.3s-1.01-1.27-1.66-1.76c-4.01-3-8.91-4.61-13.01-7.48-3.85-2.7-6.86-6.44-10.56-9.35-2.56-2.01-5.88-3.67-8.99-2.72-2.29.7-3.98,2.72-4.92,4.92s-1.27,4.61-1.68,6.97c-1.48,8.46-4.22,16.7-7.1,23.46Z"/>
    <path class="cls-10" d="m460.92,550.79c-.61.32-1.28.72-1.42,1.39-.14.68.43,1.41,1.13,1.46s1.36-.53,1.44-1.23-.42-1.39-1.14-1.63Z"/>
    <path class="cls-10" d="m484.13,499.81c9.29-2.31,18.66-4.63,28.22-5.07,9.56-.44,19.46,1.12,27.64,6.1-6.03.83-12.09-.8-18.17-1.09-11.63-.55-23.1,3.83-34.72,3.04-.74-.05-1.49-.13-2.15-.46s-1.21-.98-1.22-1.72.67-1.47.41-.8Z"/>
    <path class="cls-10" d="m499.19,513.68c8.27-1.78,16.54-3.57,24.81-5.35,3.47-.75,6.97-1.5,10.51-1.7,3.55-.2,7.19.18,10.44,1.61.63.28,1.3.66,1.48,1.32.21.74-.32,1.52-1,1.87s-1.48.38-2.24.4c-7.03.24-14.03,1.22-20.86,2.92-3.92.98-7.8,2.2-11.8,2.75s-8.22.42-11.9-1.24c-.69-.31-1.44-.8-1.47-1.56-.02-.65.55-1.19,1.18-1.36s1.29-.05.85.33Z"/>
    <path class="cls-10" d="m522.68,544.85c1.15-1.81,1.71-4,1.58-6.14-.04-.67-.23-1.45-.85-1.72-.49-.21-1.07,0-1.45.36-.38.37-.6.87-.81,1.35-5.3,12.24-9.29,25.05-11.9,38.14-.13.67-.22,1.47.29,1.93.53.47,1.35.26,2.02.03,8.38-2.97,17.06-6.14,23.29-12.47.48-.49.96-1.26.53-1.79-.47-.57-1.38-.15-1.97.29-5.1,3.76-10.85,6.64-16.91,8.48-1.21.37-2.79.56-3.47-.5-.46-.73-.22-1.67.04-2.49,2.82-8.87,5.01-18.22,9.62-25.45Z"/>
    <path class="cls-10" d="m539.06,562.41c-.86-.31-1.88.44-1.92,1.36s.81,1.73,1.72,1.75c.91.02,1.76-.66,2.03-1.54.17-.54.12-1.16-.22-1.61s-1.02-.64-1.61.03Z"/>
    <path class="cls-10" d="m553.33,520.77c-2.18,5.28-4.01,10.71-5.45,16.24-.09.36-.19.74-.11,1.11s.4.71.78.68c.41-.03.66-.45.84-.82,2.9-5.89,5.84-11.95,6.43-18.49-.88-.16-1.83.16-2.43.82s-.83,1.64-.07.47Z"/>
    <path class="cls-10" d="m547.29,541.79c-1.01.23-1.68,1.42-1.35,2.4.14.41.49.8.92.8.52,0,.86-.52,1.1-.98.18-.34.36-.68.42-1.06s-.02-.8-.31-1.05-.79-.27-.79-.11Z"/>
    <path class="cls-10" d="m501.78,539.09c-.07-1.03-.96-1.86-1.95-2.18-.99-.31-2.05-.21-3.07-.06-11.53,1.68-22.09,9.07-27.61,19.32,2.62,1.37,5.89.22,8.24-1.57,2.35-1.79,4.23-4.18,6.73-5.75,5.46-3.43,13.06-2.46,18-6.6,1.12-.94,2.11-2.34,1.8-3.78s-2.6-2.16-2.13.61Z"/>
    <g>
      <path class="cls-8" d="m508.63,476s-33.06,23.46-33.8,26.66h0c-.74,3.2-18.24,47.4-17.17,51.53,1.07,4.13,42.37,26.39,46.73,29.23,4.37,2.84,33.34-14.41,37.2-16.67,3.86-2.26,19.03-50.9,19.04-54.06s-50.4-37.85-52.01-36.69Z"/>
      <path class="cls-8" d="m475.26,503.63c14.47,9.92,28.94,19.84,43.4,29.76,12.98-6.92,26.16-13.47,39.52-19.63"/>
      <path class="cls-8" d="m519.2,534.36c-6.04,16.09-10.77,32.67-14.11,49.53"/>
    </g>
  </g>
  <g class="cls-15">
    <path class="cls-10" d="m398.56,726.64c-.4.13-.66.6-.55,1s.57.68.98.58c.5-.12.76-.64.96-1.11,3.68-8.6,6.77-17.45,9.22-26.48.47-1.73,1.15-3.72,2.85-4.29,1.31-.43,2.73.19,3.94.86,9.52,5.31,16.63,14.83,27.03,18.08,1.16.36,2.63.55,3.39-.39.51-.63.47-1.58.11-2.3s-1.01-1.27-1.66-1.76c-4.01-3-8.91-4.61-13.01-7.48-3.85-2.7-6.86-6.44-10.56-9.35-2.56-2.01-5.88-3.67-8.99-2.72-2.29.7-3.98,2.72-4.92,4.92-.95,2.2-1.27,4.61-1.68,6.97-1.48,8.46-4.22,16.7-7.1,23.46Z"/>
    <path class="cls-10" d="m396.66,730.69c-.61.32-1.28.72-1.42,1.39-.14.68.43,1.41,1.13,1.46s1.36-.53,1.44-1.23-.42-1.39-1.14-1.63Z"/>
    <path class="cls-10" d="m419.87,679.71c9.29-2.31,18.66-4.63,28.22-5.07,9.56-.44,19.46,1.12,27.64,6.1-6.03.83-12.09-.8-18.17-1.09-11.63-.55-23.1,3.83-34.72,3.04-.74-.05-1.49-.13-2.15-.46s-1.21-.98-1.22-1.72.67-1.47.41-.8Z"/>
    <path class="cls-10" d="m434.93,693.58c8.27-1.78,16.54-3.57,24.81-5.35,3.47-.75,6.97-1.5,10.51-1.7,3.55-.2,7.19.18,10.44,1.61.63.28,1.3.66,1.48,1.32.21.74-.32,1.52-1,1.87-.68.35-1.48.38-2.24.4-7.03.24-14.03,1.22-20.86,2.92-3.92.98-7.8,2.2-11.8,2.75-4,.56-8.22.42-11.9-1.24-.69-.31-1.44-.8-1.47-1.56-.02-.65.55-1.19,1.18-1.36s1.29-.05.85.33Z"/>
    <path class="cls-10" d="m458.41,724.75c1.15-1.81,1.71-4,1.58-6.14-.04-.67-.23-1.45-.85-1.72-.49-.21-1.07,0-1.45.36-.38.37-.6.87-.81,1.35-5.3,12.24-9.29,25.05-11.9,38.14-.13.67-.22,1.47.29,1.93.53.47,1.35.26,2.02.03,8.38-2.97,17.06-6.14,23.29-12.47.48-.49.96-1.26.53-1.79-.47-.57-1.38-.15-1.97.29-5.1,3.76-10.85,6.64-16.91,8.48-1.21.37-2.79.56-3.47-.5-.46-.73-.22-1.67.04-2.49,2.82-8.87,5.01-18.22,9.62-25.45Z"/>
    <path class="cls-10" d="m474.79,742.31c-.86-.31-1.88.44-1.92,1.36s.81,1.73,1.72,1.75,1.76-.66,2.03-1.54c.17-.54.12-1.16-.22-1.61s-1.02-.64-1.61.03Z"/>
    <path class="cls-10" d="m489.07,700.67c-2.18,5.28-4.01,10.71-5.45,16.24-.09.36-.19.74-.11,1.11s.4.71.78.68c.41-.03.66-.45.84-.82,2.9-5.89,5.84-11.95,6.43-18.49-.88-.16-1.83.16-2.43.82s-.83,1.64-.07.47Z"/>
    <path class="cls-10" d="m483.03,721.69c-1.01.23-1.68,1.42-1.35,2.4.14.41.49.8.92.8.52,0,.86-.52,1.1-.98.18-.34.36-.68.42-1.06s-.02-.8-.31-1.05-.79-.27-.79-.11Z"/>
    <path class="cls-10" d="m437.51,718.99c-.07-1.03-.96-1.86-1.95-2.18s-2.05-.21-3.07-.06c-11.53,1.68-22.09,9.07-27.61,19.32,2.62,1.37,5.89.22,8.24-1.57,2.35-1.79,4.23-4.18,6.73-5.75,5.46-3.43,13.06-2.46,18-6.6,1.12-.94,2.11-2.34,1.8-3.78-.32-1.43-2.6-2.16-2.13.61Z"/>
    <g>
      <path class="cls-8" d="m444.37,655.9s-33.06,23.46-33.8,26.66h0c-.74,3.2-18.24,47.4-17.17,51.53,1.07,4.13,42.37,26.39,46.73,29.23,4.37,2.84,33.34-14.41,37.2-16.67,3.86-2.26,19.03-50.9,19.04-54.06s-50.4-37.85-52.01-36.69Z"/>
      <path class="cls-8" d="m411,683.53c14.47,9.92,28.94,19.84,43.4,29.76,12.98-6.92,26.16-13.47,39.52-19.63"/>
      <path class="cls-8" d="m454.94,714.26c-6.04,16.09-10.77,32.67-14.11,49.53"/>
    </g>
  </g>
  <g class="cls-15">
    <path class="cls-10" d="m510.81,493.08c-.18.38,0,.89.38,1.08s.89.03,1.09-.34c.25-.45.04-1-.17-1.46-3.89-8.51-8.38-16.74-13.41-24.62-.96-1.51-1.99-3.35-1.26-4.99.56-1.26,1.97-1.89,3.28-2.34,10.33-3.48,22.16-2.35,31.55-7.87,1.05-.61,2.18-1.58,1.99-2.77-.12-.8-.85-1.41-1.63-1.63s-1.62-.1-2.42.05c-4.92.95-9.4,3.51-14.29,4.61-4.59,1.03-9.38.75-14.02,1.54-3.21.55-6.67,1.88-8.06,4.84-1.02,2.17-.66,4.77.33,6.95.99,2.18,2.56,4.04,4.03,5.93,5.27,6.78,9.53,14.35,12.6,21.03Z"/>
    <path class="cls-10" d="m512.53,497.21c-.17.67-.33,1.43.08,1.99.41.57,1.33.63,1.84.15s.52-1.37.06-1.89-1.31-.62-1.98-.25Z"/>
    <path class="cls-10" d="m490.37,445.76c4.53-8.43,9.11-16.93,15.21-24.31,6.1-7.38,13.91-13.66,23.09-16.37-3.44,5.02-8.72,8.42-13.02,12.72-8.22,8.24-12.69,19.68-21.08,27.75-.53.51-1.1,1.02-1.79,1.29s-1.54.24-2.09-.25-.64-1.49-.32-.84Z"/>
    <path class="cls-10" d="m510.76,443.93c4.24-7.32,8.47-14.65,12.71-21.97,1.78-3.08,3.57-6.17,5.81-8.93,2.24-2.76,4.96-5.2,8.21-6.65.63-.28,1.36-.52,1.97-.21.69.34.91,1.26.72,2s-.71,1.35-1.21,1.93c-4.55,5.37-8.52,11.21-11.85,17.41-1.91,3.56-3.62,7.25-5.89,10.59s-5.21,6.36-8.92,7.98c-.69.3-1.57.53-2.14.04-.49-.42-.51-1.21-.22-1.79s.83-.99.81-.41Z"/>
    <path class="cls-10" d="m549.63,447.49c-.57-2.07-1.81-3.96-3.49-5.29-.53-.42-1.23-.8-1.85-.53-.48.22-.72.79-.71,1.32s.24,1.03.45,1.51c5.51,12.15,12.31,23.72,20.25,34.44.41.55.94,1.15,1.62,1.08.7-.07,1.1-.82,1.38-1.48,3.43-8.2,6.92-16.76,6.42-25.63-.04-.68-.29-1.56-.97-1.59-.74-.04-1.03.92-1.11,1.65-.64,6.3-2.37,12.5-5.08,18.22-.54,1.14-1.46,2.44-2.7,2.23-.85-.15-1.39-.96-1.82-1.71-4.67-8.05-10.12-15.95-12.39-24.23Z"/>
    <path class="cls-10" d="m573.64,447.16c-.81.42-.93,1.69-.29,2.33s1.82.56,2.45-.1.69-1.75.23-2.54c-.29-.48-.78-.87-1.34-.92s-1.16.32-1.06,1.21Z"/>
    <path class="cls-10" d="m552.4,408.6c2.44,5.16,5.24,10.16,8.36,14.95.2.31.42.64.75.82s.79.18,1.02-.12c.25-.32.11-.79-.04-1.17-2.42-6.1-4.93-12.36-9.37-17.19-.71.54-1.11,1.46-1.02,2.35s.65,1.71.3.36Z"/>
    <path class="cls-10" d="m563.9,427.21c-.51.9-.08,2.2.87,2.61.4.17.92.18,1.21-.15.34-.39.19-.98.02-1.47-.13-.36-.26-.72-.5-1.02s-.61-.52-.98-.48-.72.4-.62.51Z"/>
    <path class="cls-10" d="m531.32,459.09c-.81-.64-2.03-.54-2.92-.02s-1.53,1.38-2.11,2.24c-6.5,9.67-8.13,22.45-4.25,33.43,2.77-1.02,4.12-4.21,4.38-7.16.26-2.94-.25-5.94.27-8.85,1.13-6.35,6.96-11.33,7.21-17.77.06-1.47-.32-3.14-1.59-3.87s-3.34.47-.98,1.99Z"/>
    <g>
      <path class="cls-8" d="m489.21,411.62s-4.84,40.25-2.97,42.95h0c1.87,2.7,22.85,45.36,26.63,47.35,3.78,1.98,48.02-13.64,53.05-14.96,5.04-1.32,11.73-34.38,12.65-38.75.92-4.38-24.9-48.3-27.24-50.43-2.34-2.13-61.9,11.89-62.12,13.85Z"/>
      <path class="cls-8" d="m487.24,454.9c17.07-4.05,34.14-8.1,51.21-12.14,3.6-14.27,7.61-28.43,12.02-42.46"/>
      <path class="cls-8" d="m539.52,443.01c7.85,15.29,16.96,29.93,27.2,43.73"/>
    </g>
  </g>
  <g>
    <path class="cls-5" d="m426.26,418.64c3.89,1.06,7.96-.6,9.8-4.1,3.72-7.07,5.34-10.84,16.26-11.19,6.44-.21,13.19,1.08,18.43,4.93,12.43,9.13,12.37,28.82,24.39,38.48-5.12-14.62-10.74-29.98-22.62-40.1-15.12-12.88-36.68-14.24-54.4-23.16-.87-.44-1.83-1.04-1.95-1.99-.21-1.68,2.14-2.26,3.84-2.17,11.29.55,22.73,1.54,33.41,5.42,10.68,3.88,18.21,12.71,23.32,22.83-9.15-8.88-16.11-19.83-20.83-31.59-1.78-4.45-2.85-9.37-1.69-13.96,1.35-5.38,5.9-9.77,11.35-10.99s11.56.8,15.33,5.02c4.36,4.88,5.32,11.82,5.39,18.27.14,13.49-.53,29.01-3.38,42.13,3.51-24.36,9.96-50.12,23.03-70.81,1.94-3.07,4.19-6.26,8.06-6.88,1.84-.29,3.83.31,5.02,1.78,1.81,2.24.85,4.68-.09,6.84-9.58,21.88-20.78,43.03-33.48,63.23-1.22,1.94-1.67,4.37-.84,6.55,1.49,3.89,5.65,3.93,9.11,3.57,15.51-1.62,30.64-5.91,46.23-6.71,15.59-.8,32.52,2.52,43.64,13.7-1.45,6.16-8.77,8.54-14.99,9.9-19.25,4.22-38.72,8.46-58.58,7.53-2.47-.12-4.96.43-6.92,1.88-5.18,3.86-2.61,9.67.81,13.4,2.64,2.88,5.94,5.36,7.45,8.94,1.1,2.61.61,6.35-2.08,7.15-2.01.59-4.18-.84-5.27-2.65-1.09-1.81-.34-7.52-.96-9.54-2.12-6.97-9.08-9.19-16.1-11.25-7.02-2.06-14.97-.3-20.33,4.48-4.59,4.1-7.49,10.3-13.18,12.72-5.54,2.36-12.1.36-17.43-2.67-12.17-6.92-21.1-19.36-23.67-32.98-.53-2.78-.79-5.69,0-8.38.8-2.69,5.43-7.82,8.19-8.41,1.06-.25,3.4.14,5.7.77Z"/>
    <path class="cls-5" d="m581.84,428.7c2.07.05-12.25-1.69-47.15,3.64-28.95,4.42-17.63-5.85-43.72.45"/>
    <path class="cls-5" d="m413.86,438.61s29.07,12.03,41.51-1.34c12.24-13.15,44.9,16.34,44.9,16.34"/>
    <path class="cls-5" d="m467.12,351.73l14.31,63.86-14.31-63.86Z"/>
  </g>
  <g>
    <path class="cls-13" d="m606.29,535.44c-7.19-38.65-38.36-78.47-108.36-73.08-65.73,5.06-120.05,57.55-88.4,98.86,21.49,28.05,53,4.54,66.39,73.91,5.21,27.02,29.5,54.05,80.51,62.35,34.41,5.6,152.7-18.79,144.24-64.29-7.35-39.51-78.93-14.78-94.37-97.75Z"/>
    <path class="cls-11" d="m593.09,540.36c-7.34-36.29-32.33-71.94-93.6-68.77-57.53,2.98-108.85,50.05-76.14,83.76,23.78,24.5,51.93,6.52,65.53,71.66,5.29,25.37,22.27,51.04,67.24,60.15,30.33,6.15,149.9-15.37,129.58-53.62-16.11-30.32-76.84-15.28-92.6-93.17Z"/>
    <path class="cls-11" d="m518.89,583.95s-40.24-13.21-84.92-63.47c-7.12-8.01-5.47,25.17-1.78,29.88,4.75,6.07,90.3,38.18,86.7,33.59Z"/>
    <path class="cls-11" d="m482.59,582.58s28.75,7.75,32.63,8.58c1.84.39-22.86,15.13-23.51,13.03-2.21-7.15-12.36-22.02-9.13-21.61Z"/>
    <path class="cls-11" d="m544.11,602.73c-.3-.12-7.54-4.92-7.96-4.81-.88.22,55.51,78.24,74.33,77.57,6.14-.22,35.48-4.1,52.18-16.11,9.27-6.67,8.82-15.32-.49-17.16,0,0-39.61-5.23-51.17-9.95-51.79-21.18-62.62-27.8-66.89-29.54Z"/>
    <path class="cls-11" d="m669.06,629.96c-13.37-15.66-71.93-17.54-83.07-67.41-.44-1.96-32,12.86-41.28,20.5-7.67,6.31,19.51,18.17,34.95,24.72,3.7,1.57,30.22,16.61,42.55,19.88,27.33,7.25,56.11,13.15,46.85,2.31Z"/>
    <path class="cls-11" d="m537,575.68c2.98,1.85,44.38-18.36,43.83-23.61-.27-2.55-2.51-26.29-13.69-43.14-11.81-17.8-50.39-32.94-48.65-29.31,37.06,77.29,11.06,91.43,18.51,96.06Z"/>
    <path class="cls-11" d="m523.59,576.49c10.53-6.2-2.95-89.63-24.13-95.02-21.18-5.39-54.98,17.01-60.92,26.66-5.94,9.65,78.12,72.43,85.04,68.36Z"/>
    <path class="cls-11" d="m518.44,598.38s-21.65,10.25-22.59,13.17c-.94,2.92,4.44,25.4,6.04,24.62,1.6-.79,20.5-40.66,16.55-37.79Z"/>
    <path class="cls-11" d="m526.39,604.65s-19.06,39.42-15.88,44.57c22.46,36.36,88.71,32.17,87.19,31.49-31.98-14.41-72.11-78.07-71.31-76.06Z"/>
  </g>
  <g>
    <path class="cls-3" d="m785.55,111.35l-285.68,852.56c-1.56,4.66-8.49,5.88-15.46,2.7-6.98-3.18-11.36-9.54-9.8-14.21L760.29,99.85c-1.56,4.66,2.82,11.03,9.8,14.21,6.98,3.18,13.9,1.96,15.46-2.7Z"/>
    <ellipse class="cls-3" cx="772.92" cy="105.6" rx="8.84" ry="13.93" transform="translate(310.6 733.94) rotate(-61.43)"/>
    <polygon class="cls-4" points="628.99 578.58 608.92 551.58 596.54 588.54 597.59 588.22 617.01 614.35 628.99 578.58"/>
    <polygon class="cls-4" points="605.49 648.7 585.43 621.7 573.05 658.65 574.09 658.33 593.51 684.46 605.49 648.7"/>
    <polygon class="cls-4" points="580.59 723.03 560.52 696.03 548.14 732.98 549.19 732.66 568.6 758.79 580.59 723.03"/>
    <polygon class="cls-4" points="554.74 800.16 534.68 773.16 522.29 810.11 523.34 809.79 542.76 835.92 554.74 800.16"/>
    <polygon class="cls-4" points="532.19 867.47 512.12 840.47 499.74 877.42 500.78 877.1 520.2 903.23 532.19 867.47"/>
    <polygon class="cls-4" points="513.46 923.37 493.39 896.37 481.01 933.33 482.05 933 501.47 959.13 513.46 923.37"/>
    <polygon class="cls-4" points="774.45 144.48 754.39 117.48 742 154.43 743.05 154.11 762.47 180.24 774.45 144.48"/>
    <polygon class="cls-4" points="750.96 214.6 730.89 187.6 718.51 224.55 719.55 224.23 738.97 250.36 750.96 214.6"/>
    <polygon class="cls-4" points="726.05 288.93 705.98 261.93 693.6 298.88 694.65 298.56 714.07 324.69 726.05 288.93"/>
    <polygon class="cls-4" points="700.2 366.06 680.14 339.06 667.76 376.01 668.8 375.69 688.22 401.82 700.2 366.06"/>
    <polygon class="cls-4" points="677.65 433.37 657.58 406.37 645.2 443.32 646.25 443 665.67 469.13 677.65 433.37"/>
    <polygon class="cls-4" points="653.28 506.1 633.21 479.1 620.83 516.05 621.88 515.73 641.29 541.86 653.28 506.1"/>
  </g>
  <g class="cls-15">
    <path class="cls-10" d="m658.54,558.25c-.13.4.1.88.5,1.03s.89-.07,1.04-.46c.19-.47-.08-.99-.35-1.43-4.87-7.99-10.29-15.64-16.22-22.87-1.14-1.39-2.37-3.1-1.84-4.81.41-1.32,1.73-2.11,2.98-2.71,9.84-4.67,21.73-4.94,30.41-11.53.97-.73,1.97-1.82,1.65-2.99-.22-.78-1.01-1.3-1.81-1.42s-1.62.09-2.39.33c-4.77,1.52-8.92,4.59-13.65,6.26-4.44,1.57-9.22,1.85-13.74,3.18-3.13.92-6.4,2.66-7.43,5.75-.76,2.27-.09,4.82,1.15,6.86s3.02,3.71,4.7,5.41c6.03,6.11,11.15,13.13,14.99,19.4Z"/>
    <path class="cls-10" d="m660.74,562.15c-.09.68-.16,1.46.31,1.97.47.51,1.4.47,1.85-.07s.36-1.42-.16-1.88-1.38-.47-1.99-.02Z"/>
    <path class="cls-10" d="m632.68,513.67c3.51-8.91,7.05-17.88,12.24-25.93,5.19-8.05,12.2-15.2,21-18.97-2.82,5.39-7.67,9.39-11.43,14.17-7.19,9.15-10.28,21.04-17.67,30.04-.47.57-.97,1.14-1.62,1.49s-1.5.42-2.11,0-.81-1.4-.41-.79Z"/>
    <path class="cls-10" d="m652.71,509.45c3.35-7.77,6.69-15.54,10.04-23.32,1.41-3.26,2.82-6.54,4.72-9.55,1.9-3,4.32-5.75,7.37-7.57.59-.35,1.29-.67,1.93-.44.72.26,1.06,1.14.95,1.9s-.55,1.42-.97,2.06c-3.88,5.86-7.15,12.14-9.72,18.68-1.48,3.76-2.74,7.63-4.61,11.21s-4.43,6.93-7.92,8.98c-.65.38-1.49.71-2.12.29-.54-.36-.65-1.14-.43-1.75.22-.61.7-1.08.76-.5Z"/>
    <path class="cls-10" d="m691.73,508.41c-.81-1.99-2.26-3.72-4.09-4.85-.57-.36-1.32-.65-1.9-.3-.45.27-.63.87-.55,1.39s.35.99.63,1.45c6.9,11.42,15.01,22.1,24.16,31.82.47.5,1.07,1.03,1.74.88.69-.16,1-.95,1.19-1.63,2.44-8.55,4.9-17.46,3.36-26.21-.12-.67-.47-1.51-1.15-1.47-.73.05-.92,1.04-.91,1.77.11,6.34-.88,12.69-2.9,18.69-.4,1.19-1.17,2.6-2.42,2.53-.86-.05-1.49-.79-2.01-1.48-5.59-7.44-11.93-14.65-15.15-22.6Z"/>
    <path class="cls-10" d="m715.53,505.25c-.75.52-.73,1.79-.01,2.35s1.88.34,2.43-.38.48-1.82-.07-2.55c-.34-.45-.88-.77-1.44-.75s-1.11.46-.91,1.33Z"/>
    <path class="cls-10" d="m689.91,469.47c3.03,4.84,6.4,9.48,10.06,13.86.24.29.5.58.84.73s.81.08,1-.24c.21-.35.02-.8-.18-1.16-3.12-5.78-6.35-11.69-11.33-15.97-.64.62-.93,1.58-.74,2.45.19.87.85,1.63.34.32Z"/>
    <path class="cls-10" d="m703.52,486.59c-.4.95.18,2.19,1.17,2.49.42.13.94.07,1.18-.29.29-.42.07-1-.16-1.46-.17-.34-.34-.69-.61-.96s-.66-.44-1.03-.36-.67.49-.55.58Z"/>
    <path class="cls-10" d="m674.91,522.09c-.88-.54-2.08-.3-2.9.32s-1.36,1.55-1.83,2.47c-5.32,10.37-5.43,23.25-.28,33.7,2.63-1.34,3.6-4.67,3.5-7.62-.09-2.95-.95-5.87-.78-8.82.38-6.44,5.58-12.07,5.07-18.49-.12-1.46-.68-3.08-2.03-3.65s-3.27.86-.74,2.09Z"/>
    <g>
      <path class="cls-8" d="m627.51,479.9s-.07,40.54,2.1,43h0c2.18,2.46,28.02,42.36,32.01,43.88,3.99,1.53,46.08-19.19,50.92-21.1,4.85-1.91,7.61-35.52,8.01-39.97.4-4.45-30.41-45.04-32.99-46.87-2.57-1.84-60.07,19.09-60.06,21.07Z"/>
      <path class="cls-8" d="m630.65,523.11c16.47-6.03,32.95-12.06,49.42-18.08,1.89-14.59,4.21-29.12,6.94-43.58"/>
      <path class="cls-8" d="m681.16,505.15c9.6,14.26,20.36,27.73,32.16,40.23"/>
    </g>
  </g>
  <g>
    <path class="cls-13" d="m556.64,800.77c38.35-16.22,79.36-49.44,78.49-96.5-.81-44.19-48.84-66.68-91.34-32.7-28.86,23.07-7.8,38.14-76.66,67.59-26.82,11.47-54.85,36.19-66.21,74.04-7.66,25.53,8.77,100.63,53.93,81.53,39.21-16.59,19.48-59.12,101.8-93.95Z"/>
    <path class="cls-11" d="m552.65,793.03c36.04-15.64,72.58-43.35,73.34-85,.71-39.1-42.2-61.08-77.31-28.57-25.52,23.63-9.67,37.97-74.39,66.33-25.21,11.05-51.45,30.29-63.22,64.18-7.94,22.86,5.6,99.67,44.39,74.44,30.75-20,19.83-57.82,97.2-91.39Z"/>
    <path class="cls-11" d="m514.6,754.14s15.49-31.79,67.59-77.43c8.3-7.27-24.33,3.51-29.18,7.44-6.25,5.06-43.14,73.82-38.41,69.99Z"/>
    <path class="cls-11" d="m518.24,728.52s-9.41,22.22-10.47,25.16c-.5,1.39-13.39-11.49-11.29-12.54,7.15-3.61,22.37-14.98,21.76-12.62Z"/>
    <path class="cls-11" d="m494.59,777.11c.14-.24,5.3-6.67,5.22-6.93-.16-.55-80.21,61.29-80.75,74.17-.17,4.2,1.78,23.45,12.5,31.57,5.95,4.51,14.46,1.68,16.85-5.32,0,0,7.63-29.04,12.99-38.44,24.03-42.13,31.21-51.58,33.19-55.05Z"/>
    <path class="cls-11" d="m460.01,871.82c16.2-13.84,21.74-55.06,71.33-77.28,1.95-.87-10.59-18.5-17.49-22.73-5.7-3.49-19.04,18.83-26.44,31.46-1.77,3.02-18.2,25.82-22.18,35.33-8.83,21.09-16.44,42.8-5.22,33.22Z"/>
    <path class="cls-11" d="m521.57,764.32c-2,2.61,15.2,25.5,20.38,23.59,2.52-.93,25.94-9.38,43.16-22.04,18.2-13.37,35.48-44.58,31.81-42.31-78.12,48.2-90.34,34.24-95.35,40.76Z"/>
    <path class="cls-11" d="m521.62,755.24c5.42,5.52,88.06-28.08,94.68-44.36,6.62-16.28-13.21-33.25-22.29-34.58-9.08-1.32-75.95,75.31-72.39,78.93Z"/>
    <path class="cls-11" d="m500.49,758.02s-8.68-12.06-11.49-11.87c-2.81.19-25.19,10.46-24.52,11.34.67.88,38.57,2.43,36.01.52Z"/>
    <path class="cls-11" d="m493.83,765.36s-37.44-1.79-42.7,1.92c-37.07,26.16-37.14,70.97-36.38,69.71,16.15-26.4,81.1-72.77,79.07-71.63Z"/>
  </g>
  <g class="cls-15">
    <path class="cls-10" d="m481.49,832.61c-.3.32-.3.89.02,1.2s.88.33,1.2.03c.4-.36.37-.98.31-1.52-1.05-9.79-2.78-19.51-5.17-29.07-.46-1.83-.86-4.01.41-5.4.98-1.08,2.6-1.23,4.06-1.24,11.47-.03,22.91,5.05,34.14,2.68,1.25-.26,2.7-.85,2.92-2.1.15-.84-.38-1.69-1.09-2.17s-1.58-.64-2.43-.76c-5.23-.69-10.56.36-15.81-.17-4.93-.5-9.62-2.38-14.51-3.14-3.39-.53-7.29-.35-9.66,2.14-1.74,1.82-2.25,4.54-1.99,7.05.26,2.51,1.21,4.88,2.04,7.26,3,8.53,4.73,17.51,5.56,25.2Z"/>
    <path class="cls-10" d="m481.83,837.31c-.39.61-.8,1.32-.59,2.01.22.7,1.12,1.07,1.79.76s.98-1.19.69-1.87-1.1-1.06-1.89-.91Z"/>
    <path class="cls-10" d="m476.89,778.54c7.34-6.91,14.75-13.86,23.3-19.2,8.56-5.33,18.45-8.99,28.52-8.64-5.11,3.87-11.52,5.49-17.25,8.36-10.96,5.49-19.24,15.42-30.32,20.67-.7.33-1.44.65-2.21.69-.78.03-1.62-.28-2.01-.95s-.14-1.7-.04-.94Z"/>
    <path class="cls-10" d="m497.86,783.51c6.68-5.9,13.35-11.8,20.03-17.7,2.8-2.48,5.62-4.97,8.78-6.98,3.16-2.01,6.69-3.54,10.42-3.9.72-.07,1.53-.06,2.04.45.57.57.49,1.56.05,2.23-.44.67-1.16,1.11-1.85,1.52-6.33,3.84-12.26,8.35-17.65,13.43-3.1,2.92-6.03,6.03-9.42,8.61-3.39,2.57-7.33,4.61-11.57,5-.79.07-1.74,0-2.15-.67-.35-.58-.11-1.38.38-1.86s1.16-.71.95-.13Z"/>
    <path class="cls-10" d="m535.48,800.05c.13-2.26-.48-4.55-1.72-6.45-.39-.6-.96-1.21-1.67-1.14-.56.06-.99.55-1.15,1.08s-.11,1.11-.05,1.66c1.44,13.97,4.37,27.79,8.72,41.15.22.68.56,1.47,1.26,1.62.73.16,1.38-.46,1.87-1.02,6.16-7.05,12.5-14.42,14.97-23.45.19-.69.23-1.65-.44-1.91-.72-.28-1.34.57-1.66,1.28-2.74,6.08-6.54,11.69-11.16,16.5-.92.96-2.28,1.95-3.44,1.32-.8-.43-1.06-1.42-1.25-2.31-1.98-9.6-4.78-19.31-4.28-28.33Z"/>
    <path class="cls-10" d="m559.57,807.73c-.95.15-1.5,1.38-1.07,2.23s1.63,1.17,2.48.72c.85-.45,1.28-1.52,1.07-2.46-.12-.58-.49-1.13-1.03-1.36s-1.26-.06-1.46.86Z"/>
    <path class="cls-10" d="m551.23,762.14c.72,5.97,1.84,11.9,3.36,17.72.1.38.21.78.47,1.07s.74.44,1.06.22c.36-.24.37-.75.35-1.19-.38-6.9-.79-13.99-3.62-20.29-.89.31-1.59,1.09-1.81,2.01s.08,1.93.18.46Z"/>
    <path class="cls-10" d="m556.51,784.56c-.81.73-.81,2.17,0,2.9.34.31.86.48,1.26.25.47-.27.52-.92.51-1.46,0-.4-.02-.81-.16-1.19s-.43-.72-.82-.81c-.39-.09-.86.16-.79.3Z"/>
    <path class="cls-10" d="m513.32,805.52c-.6-.91-1.84-1.22-2.91-1-1.07.22-1.99.86-2.85,1.53-9.72,7.48-15.61,19.7-15.4,31.97,3.11-.09,5.52-2.83,6.76-5.68s1.73-6.01,3.22-8.74c3.25-5.96,10.73-8.99,13.13-15.33.55-1.45.73-3.24-.3-4.39-1.03-1.15-3.5-.64-1.65,1.65Z"/>
    <g>
      <path class="cls-8" d="m487.12,744.05s-18.27,38.58-17.31,41.89h0c.97,3.32,7.67,52.93,10.78,56.17,3.11,3.24,52.5,2.41,57.97,2.77,5.47.36,23.19-30.41,25.58-34.47,2.38-4.06-8.74-56.55-10.36-59.45-1.62-2.91-65.78-8.8-66.66-6.91Z"/>
      <path class="cls-8" d="m470.71,786.61c18.4,1.66,36.79,3.31,55.19,4.97,8.36-13.04,17.09-25.85,26.18-38.39"/>
      <path class="cls-8" d="m526.88,792.2c2.74,17.89,6.94,35.55,12.56,52.75"/>
    </g>
  </g>
  <g class="cls-15">
    <path class="cls-10" d="m575.54,690.49c-.44-.05-.89.29-.95.73s.26.9.7.98c.53.1,1.01-.29,1.4-.66,7.23-6.69,13.98-13.89,20.21-21.52,1.19-1.46,2.7-3.09,4.58-2.9,1.45.14,2.54,1.35,3.42,2.51,6.88,9.18,9.65,21.39,18.26,28.97.96.84,2.29,1.66,3.43,1.08.76-.39,1.13-1.31,1.09-2.17s-.43-1.65-.85-2.4c-2.57-4.61-6.6-8.25-9.31-12.77-2.55-4.25-3.84-9.13-6.15-13.51-1.6-3.04-4.08-6.05-7.49-6.46-2.5-.3-4.99.91-6.84,2.62-1.85,1.71-3.19,3.89-4.6,5.98-5.05,7.51-11.21,14.26-16.88,19.52Z"/>
    <path class="cls-10" d="m571.97,693.58c-.72.05-1.54.15-1.97.73-.43.59-.19,1.54.46,1.89s1.54.07,1.91-.56.19-1.52-.4-2.06Z"/>
    <path class="cls-10" d="m616.13,654.48c9.93,1.76,19.93,3.53,29.32,7.21,9.39,3.67,18.24,9.41,23.97,17.7-6.15-1.78-11.29-5.95-17.01-8.83-10.95-5.51-23.86-6.21-34.7-11.95-.69-.36-1.38-.76-1.87-1.36s-.74-1.46-.44-2.18,1.28-1.13.73-.59Z"/>
    <path class="cls-10" d="m624.68,674.27c8.72,1.83,17.44,3.65,26.16,5.48,3.66.77,7.34,1.54,10.84,2.87,3.5,1.33,6.84,3.25,9.35,6.02.48.53.97,1.19.86,1.9-.11.8-.96,1.33-1.76,1.37-.81.05-1.58-.27-2.33-.57-6.86-2.78-14.02-4.83-21.31-6.12-4.19-.74-8.44-1.23-12.53-2.41-4.09-1.18-8.08-3.12-10.92-6.29-.53-.59-1.05-1.39-.75-2.13.26-.63,1.04-.91,1.71-.81.67.1,1.26.5.67.68Z"/>
    <path class="cls-10" d="m633.91,714.31c1.89-1.25,3.36-3.11,4.15-5.23.25-.67.4-1.5-.08-2.02-.38-.41-1.03-.46-1.55-.28-.52.19-.95.57-1.36.95-10.34,9.51-19.67,20.11-27.78,31.59-.41.59-.84,1.32-.55,1.98.31.68,1.19.83,1.93.89,9.33.73,19.04,1.4,27.75-2.02.67-.26,1.46-.8,1.27-1.49-.21-.75-1.26-.73-2.02-.56-6.52,1.43-13.28,1.75-19.9.91-1.32-.17-2.93-.66-3.12-1.97-.13-.9.51-1.71,1.11-2.38,6.51-7.32,12.62-15.38,20.15-20.36Z"/>
    <path class="cls-10" d="m642.15,738.21c-.69-.67-2-.38-2.43.48-.43.86.04,2.01.9,2.42s1.98.12,2.61-.61c.39-.45.61-1.07.47-1.64s-.7-1.05-1.56-.66Z"/>
    <path class="cls-10" d="m673.71,704.28c-4.36,4.14-8.44,8.59-12.2,13.28-.25.31-.5.63-.58,1.02s.09.85.46.99c.41.15.83-.15,1.16-.43,5.31-4.43,10.74-9,14.11-15.03-.78-.53-1.83-.63-2.69-.25-.86.38-1.5,1.22-.26.42Z"/>
    <path class="cls-10" d="m658.9,721.91c-1.07-.22-2.23.65-2.33,1.73-.04.46.13.98.55,1.16.5.22,1.05-.14,1.47-.47.32-.25.64-.5.86-.83s.32-.78.16-1.14-.64-.59-.71-.45Z"/>
    <path class="cls-10" d="m616.28,699.82c.37-1.02-.13-2.2-.94-2.93-.81-.72-1.88-1.08-2.93-1.38-11.81-3.32-25.13-.74-34.84,6.76,1.93,2.44,5.57,2.73,8.6,2.02,3.03-.71,5.85-2.21,8.93-2.65,6.72-.96,13.62,3.23,20.14,1.36,1.49-.43,3.04-1.35,3.35-2.86s-1.57-3.19-2.31-.33Z"/>
    <g>
      <path class="cls-8" d="m649.89,642.07s-41.85,8.41-43.93,11.17h0c-2.08,2.76-37.85,37.78-38.59,42.22-.74,4.43,29.45,43.53,32.43,48.13,2.98,4.6,38.24.42,42.92-.1,4.68-.52,40.11-40.81,41.47-43.85,1.36-3.04-32.27-58-34.31-57.57Z"/>
      <path class="cls-8" d="m605.96,654.36c9.67,15.74,19.34,31.48,29,47.21,15.45-1.1,30.93-1.75,46.42-1.95"/>
      <path class="cls-8" d="m635.06,702.73c-12.7,12.89-24.35,26.82-34.79,41.6"/>
    </g>
  </g>
  <g class="cls-15">
    <path class="cls-10" d="m371.83,598.93c-.68-.07-1.37.46-1.47,1.14s.41,1.39,1.09,1.51c.82.15,1.56-.46,2.17-1.03,11.13-10.46,21.54-21.7,31.11-33.6,1.83-2.28,4.15-4.82,7.07-4.55,2.25.21,3.96,2.06,5.33,3.86,10.77,14.17,15.2,33.07,28.64,44.73,1.5,1.3,3.57,2.54,5.33,1.63,1.18-.61,1.74-2.05,1.66-3.38-.08-1.33-.68-2.56-1.34-3.71-4.04-7.12-10.33-12.72-14.59-19.71-4-6.56-6.06-14.12-9.7-20.89-2.52-4.69-6.4-9.34-11.69-9.94-3.89-.44-7.73,1.47-10.59,4.14-2.85,2.67-4.91,6.06-7.07,9.33-7.74,11.7-17.24,22.24-25.97,30.47Z"/>
    <path class="cls-10" d="m366.33,603.75c-1.12.08-2.39.24-3.04,1.16-.66.93-.28,2.39.73,2.93s2.39.09,2.95-.9.28-2.36-.64-3.19Z"/>
    <path class="cls-10" d="m434.39,542.61c15.42,2.62,30.95,5.26,45.56,10.85,14.6,5.59,28.39,14.4,37.38,27.19-9.56-2.7-17.58-9.11-26.48-13.51-17.05-8.42-37.08-9.37-53.95-18.14-1.07-.56-2.15-1.17-2.92-2.1-.77-.93-1.17-2.26-.71-3.37s1.97-1.76,1.13-.93Z"/>
    <path class="cls-10" d="m447.87,573.21c13.55,2.74,27.09,5.47,40.64,8.21,5.69,1.15,11.41,2.31,16.85,4.33,5.44,2.02,10.64,4.97,14.57,9.23.76.82,1.51,1.83,1.36,2.94-.17,1.24-1.47,2.07-2.72,2.15-1.25.08-2.46-.4-3.62-.86-10.68-4.23-21.8-7.34-33.13-9.26-6.51-1.1-13.11-1.81-19.47-3.6-6.36-1.78-12.57-4.75-17.01-9.63-.83-.91-1.64-2.15-1.18-3.29.39-.98,1.6-1.42,2.65-1.27s1.96.76,1.05,1.05Z"/>
    <path class="cls-10" d="m462.64,635.22c2.91-1.96,5.18-4.86,6.37-8.16.37-1.04.6-2.32-.15-3.13-.59-.63-1.6-.71-2.41-.41-.81.3-1.47.9-2.1,1.49-15.93,14.86-30.29,31.42-42.73,49.3-.64.91-1.29,2.06-.83,3.07.48,1.05,1.85,1.28,3.01,1.36,14.48,1.02,29.55,1.96,43.02-3.44,1.04-.42,2.26-1.26,1.96-2.33-.33-1.16-1.96-1.12-3.14-.85-10.09,2.3-20.57,2.85-30.85,1.64-2.04-.24-4.55-.99-4.86-3.02-.21-1.39.77-2.65,1.69-3.71,10.02-11.43,19.4-23.99,31.03-31.81Z"/>
    <path class="cls-10" d="m475.68,672.2c-1.08-1.03-3.11-.56-3.76.77-.65,1.34.08,3.12,1.43,3.75,1.35.63,3.07.16,4.04-.97.6-.7.94-1.66.72-2.55s-1.1-1.62-2.43-1Z"/>
    <path class="cls-10" d="m524.27,619.22c-6.72,6.48-12.99,13.41-18.77,20.74-.38.48-.77.99-.88,1.59-.11.6.14,1.32.72,1.52.63.22,1.28-.24,1.79-.68,8.19-6.93,16.55-14.07,21.71-23.48-1.21-.81-2.84-.95-4.17-.35s-2.31,1.91-.4.65Z"/>
    <path class="cls-10" d="m501.48,646.73c-1.66-.32-3.45,1.03-3.59,2.71-.06.71.21,1.52.86,1.8.77.33,1.62-.22,2.28-.74.49-.38.99-.78,1.32-1.3s.49-1.21.23-1.77c-.26-.57-1-.91-1.11-.69Z"/>
    <path class="cls-10" d="m435.13,612.94c.56-1.59-.22-3.42-1.49-4.53-1.27-1.11-2.93-1.65-4.56-2.1-18.35-5.02-38.98-.86-53.96,10.87,3.02,3.76,8.67,4.18,13.36,3.04,4.69-1.14,9.06-3.49,13.83-4.2,10.41-1.56,21.16,4.86,31.26,1.89,2.3-.68,4.69-2.13,5.16-4.48.46-2.35-2.48-4.93-3.59-.49Z"/>
    <g>
      <path class="cls-8" d="m486.63,522.99s-64.82,13.51-68.02,17.81h0c-3.19,4.3-58.28,59.03-59.38,65.91-1.1,6.89,46.16,67.2,50.84,74.3,4.68,7.1,59.33.22,66.58-.64,7.25-.86,61.76-63.74,63.83-68.47,2.07-4.73-50.7-89.6-53.86-88.92Z"/>
      <path class="cls-8" d="m418.62,542.53c15.17,24.3,30.34,48.61,45.51,72.91,23.95-1.88,47.96-3.06,71.99-3.55"/>
      <path class="cls-8" d="m464.3,617.24c-19.56,20.13-37.47,41.87-53.49,64.92"/>
    </g>
  </g>
  <g>
    <path class="cls-13" d="m520.67,954.4c25.94,32.57,68.97,63.13,114.06,49.63,42.34-12.67,51.08-64.98,6.92-96.77-29.99-21.58-38.83,2.75-85.72-55.65-18.26-22.74-49.62-43.09-89.12-43.85-26.65-.51-94.56,35.52-64.01,73.87,26.52,33.3,62.18,2.85,117.87,72.77Z"/>
    <path class="cls-11" d="m527.05,948.48c24.76,30.51,61.28,58.24,101.59,47.77,37.85-9.83,47.48-57.08,6.72-82.15-29.63-18.22-39.17.9-83.9-53.8-17.42-21.31-43.02-41.4-78.82-43.62-24.15-1.5-94.49,32.21-59.76,62.78,27.53,24.23,61.02,3.54,114.17,69.02Z"/>
    <path class="cls-11" d="m554.27,901.36s34.79,6.36,92.76,44.27c9.24,6.04-9.93-22.49-15.02-26.1-6.56-4.66-82.7-21.69-77.74-18.16Z"/>
    <path class="cls-11" d="m579.92,897.98s-23.93-3.09-27.05-3.32c-1.48-.11,7.46-15.99,9.04-14.25,5.4,5.92,20.45,17.52,18.01,17.57Z"/>
    <path class="cls-11" d="m526.76,888.28c.27.07,7.85,3.31,8.08,3.16.48-.3-80.61-60.77-93.16-57.82-4.09.96-22.11,8.03-27.04,20.53-2.74,6.94,2.27,14.38,9.66,14.8,0,0,30.02-.47,40.51,2.17,47.04,11.81,58.07,16.18,61.95,17.16Z"/>
    <path class="cls-11" d="m426.24,880.45c17.69,11.88,58.88,6.12,93.63,47.91,1.37,1.65,14.97-15.17,17.18-22.96,1.83-6.43-23.26-13.28-37.41-17-3.39-.89-29.76-10.58-39.99-11.85-22.69-2.83-45.64-4.32-33.4,3.91Z"/>
    <path class="cls-11" d="m546.34,910.81c-3.05-1.23-20.47,21.5-17.24,25.97,1.57,2.18,16.01,22.45,32.84,35.64,17.78,13.93,52.48,22.18,49.31,19.25-67.44-62.27-57.28-77.8-64.91-80.87Z"/>
    <path class="cls-11" d="m555.09,908.42c-3.86,6.7,50.74,77.26,68.2,79.26,17.46,2,28.47-21.67,27.3-30.77-1.17-9.1-92.96-52.89-95.5-48.48Z"/>
    <path class="cls-11" d="m546.74,888.81s9.28-11.61,8.34-14.26c-.94-2.65-16.86-21.44-17.52-20.56-.67.88,8.03,37.8,9.18,34.82Z"/>
    <path class="cls-11" d="m537.87,884.38s-8.35-36.54-13.33-40.61c-35.17-28.66-78.34-16.68-76.93-16.28,29.77,8.45,91.91,58.53,90.26,56.89Z"/>
  </g>
  <g>
    <path class="cls-13" d="m484.32,662.15c30.41,31.65,78.62,59.43,124.82,40.57,43.38-17.71,47.62-73.72-1.91-102.68-33.63-19.66-40.63,6.89-95.55-49.82-21.39-22.09-56.34-40.31-98.01-37.04-28.11,2.2-96.19,47.15-60.38,84.42,31.09,32.36,65.75-3.39,131.03,64.56Z"/>
    <path class="cls-11" d="m490.48,655.25c28.97,29.6,70.06,55.06,111.52,39.89,38.92-14.25,44.57-65.03-.74-87.25-32.93-16.15-41.16,4.98-93.46-48.07-20.37-20.66-49.23-39.2-87.14-37.86-25.57.9-96.43,43.66-56.96,72.3,31.3,22.7,64.59-2.54,126.78,60.99Z"/>
    <path class="cls-11" d="m514.66,602.81s37.23,3.13,101.88,37.11c10.3,5.42-12.59-22.68-18.3-25.96-7.35-4.23-89.15-14.35-83.58-11.14Z"/>
    <path class="cls-11" d="m541.35,596.6s-25.49-.79-28.8-.71c-1.56.04,6.34-17.61,8.17-15.95,6.25,5.68,23.19,16.35,20.63,16.66Z"/>
    <path class="cls-11" d="m484.45,591.84c.29.04,8.58,2.68,8.81,2.5.48-.37-90.65-55.74-103.59-51.34-4.22,1.43-22.52,10.73-26.53,24.41-2.22,7.6,3.76,14.92,11.58,14.6,0,0,31.56-3.58,42.86-1.88,50.65,7.61,62.69,11.08,66.86,11.71Z"/>
    <path class="cls-11" d="m377.86,593.94c19.75,10.7,62.58.4,103.14,40.86,1.6,1.59,14.32-17.53,15.91-25.96,1.32-6.97-25.75-11.6-41.01-14.07-3.65-.59-32.35-8.09-43.24-8.38-24.16-.65-48.47.14-34.8,7.55Z"/>
    <path class="cls-11" d="m507.21,613.58c-3.33-.98-19.51,24.76-15.68,29.14,1.86,2.13,19,22.01,37.97,34.18,20.04,12.85,57.37,17.97,53.75,15.22-76.93-58.68-67.71-76.09-76.04-78.54Z"/>
    <path class="cls-11" d="m516.2,610.15c-3.42,7.46,60.77,76.19,79.34,76.5,18.57.31,27.92-25.76,25.82-35.23-2.1-9.47-102.91-46.17-105.17-41.27Z"/>
    <path class="cls-11" d="m505.54,590.36s8.67-13.19,7.43-15.88c-1.24-2.7-19.79-20.86-20.4-19.86-.62,1,12.05,39.01,12.98,35.75Z"/>
    <path class="cls-11" d="m495.78,586.6s-12.26-37.65-17.9-41.42c-39.76-26.59-84.08-9.52-82.55-9.24,32.15,5.84,102.34,52.22,100.45,50.66Z"/>
  </g>
  <g class="cls-15">
    <path class="cls-10" d="m562.24,861.33c-.4-.2-.93-.02-1.14.37s-.06.93.33,1.16c.46.27,1.05.07,1.54-.15,9.05-3.88,17.83-8.39,26.26-13.49,1.61-.98,3.58-2,5.29-1.2,1.32.62,1.94,2.12,2.37,3.51,3.4,10.96,1.91,23.38,7.48,33.42.62,1.12,1.6,2.33,2.87,2.17.85-.11,1.51-.86,1.75-1.68s.15-1.7,0-2.54c-.87-5.2-3.45-9.98-4.49-15.16-.97-4.86-.55-9.89-1.26-14.79-.49-3.4-1.81-7.07-4.88-8.6-2.26-1.13-5.01-.82-7.33.17-2.32.99-4.31,2.59-6.34,4.09-7.27,5.38-15.35,9.67-22.45,12.73Z"/>
    <path class="cls-10" d="m557.84,863.04c-.7-.2-1.5-.38-2.1.03-.61.41-.69,1.39-.2,1.94.49.55,1.43.58,1.99.11s.69-1.36.32-2.07Z"/>
    <path class="cls-10" d="m612.57,841.03c8.76,4.99,17.59,10.02,25.2,16.63,7.61,6.61,14.02,14.99,16.64,24.72-5.2-3.74-8.64-9.4-13.06-14.03-8.47-8.86-20.39-13.86-28.67-22.9-.53-.57-1.05-1.18-1.31-1.91s-.21-1.63.32-2.2,1.58-.63.89-.31Z"/>
    <path class="cls-10" d="m613.97,862.54c7.6,4.65,15.2,9.3,22.8,13.94,3.19,1.95,6.4,3.91,9.25,6.34,2.85,2.43,5.35,5.36,6.79,8.81.28.67.51,1.44.17,2.08-.38.71-1.35.93-2.12.7-.77-.23-1.4-.79-2-1.32-5.53-4.92-11.58-9.26-18.02-12.92-3.7-2.1-7.54-3.99-11-6.48-3.46-2.48-6.57-5.65-8.18-9.59-.3-.74-.52-1.66.01-2.26.45-.51,1.29-.51,1.89-.18s1.02.9.41.87Z"/>
    <path class="cls-10" d="m609.23,903.36c2.2-.54,4.21-1.8,5.66-3.54.46-.54.88-1.28.6-1.93-.22-.51-.81-.78-1.37-.78-.56,0-1.09.22-1.6.44-12.93,5.48-25.28,12.35-36.77,20.43-.59.41-1.24.96-1.18,1.68.06.74.84,1.18,1.52,1.49,8.54,3.82,17.46,7.71,26.82,7.41.72-.02,1.65-.26,1.7-.98.06-.77-.94-1.11-1.71-1.21-6.62-.84-13.09-2.81-19.05-5.82-1.18-.6-2.54-1.6-2.28-2.9.18-.89,1.05-1.44,1.84-1.87,8.59-4.71,17.05-10.25,25.82-12.42Z"/>
    <path class="cls-10" d="m608.97,928.64c-.43-.86-1.76-1.03-2.45-.36s-.64,1.91.04,2.59c.68.68,1.83.77,2.66.3.52-.29.94-.8,1-1.39s-.31-1.23-1.25-1.14Z"/>
    <path class="cls-10" d="m650.09,907.28c-5.5,2.44-10.83,5.25-15.95,8.42-.34.21-.68.43-.89.77s-.2.83.1,1.08c.34.27.83.14,1.24-.01,6.49-2.39,13.13-4.87,18.33-9.43-.55-.76-1.51-1.2-2.45-1.14-.94.07-1.82.65-.39.31Z"/>
    <path class="cls-10" d="m630.22,918.91c-.93-.56-2.31-.14-2.77.85-.19.42-.21.97.13,1.28.4.37,1.03.22,1.55.05.38-.13.77-.25,1.09-.5s.56-.62.53-1.02-.41-.77-.52-.66Z"/>
    <path class="cls-10" d="m597.49,883.79c.69-.84.62-2.12.1-3.07-.52-.95-1.41-1.65-2.3-2.28-10.01-7.09-23.42-9.13-35.08-5.33,1,2.94,4.33,4.44,7.42,4.79s6.26-.11,9.3.51c6.65,1.35,11.74,7.61,18.52,8.05,1.54.1,3.31-.25,4.11-1.58.8-1.32-.41-3.53-2.06-1.09Z"/>
    <g>
      <path class="cls-8" d="m648.53,840.68s-42.24-6.13-45.13-4.23h0c-2.89,1.9-48.33,22.89-50.52,26.82-2.19,3.93,13.13,50.89,14.39,56.23,1.26,5.34,35.89,13.23,40.47,14.31,4.58,1.08,51.48-24.98,53.78-27.38,2.3-2.41-10.93-65.46-12.99-65.74Z"/>
      <path class="cls-8" d="m603.03,837.51c3.82,18.07,7.65,36.14,11.47,54.21,14.92,4.15,29.73,8.73,44.39,13.74"/>
      <path class="cls-8" d="m614.21,892.84c-16.29,7.88-31.94,17.09-46.73,27.51"/>
    </g>
  </g>
  <g class="cls-15">
    <path class="cls-10" d="m430.2,940.6c-.44-.04-.88.31-.94.75s.28.89.72.96c.53.09,1-.32,1.39-.69,7.06-6.87,13.64-14.23,19.68-22.01,1.16-1.49,2.62-3.15,4.5-3.01,1.45.11,2.58,1.28,3.48,2.43,7.1,9.01,10.17,21.14,18.96,28.51.98.82,2.33,1.6,3.46.99.75-.41,1.1-1.34,1.03-2.2s-.47-1.64-.9-2.38c-2.68-4.54-6.8-8.08-9.62-12.54-2.65-4.19-4.06-9.03-6.48-13.36-1.68-2.99-4.23-5.95-7.64-6.28-2.51-.24-4.97,1.03-6.78,2.79-1.81,1.76-3.1,3.96-4.45,6.09-4.86,7.63-10.86,14.53-16.4,19.93Z"/>
    <path class="cls-10" d="m426.71,943.76c-.72.06-1.54.18-1.95.78-.42.6-.15,1.55.5,1.88s1.54.03,1.89-.61.16-1.52-.45-2.05Z"/>
    <path class="cls-10" d="m469.89,903.6c9.97,1.51,20.01,3.04,29.49,6.49,9.48,3.44,18.46,8.96,24.4,17.11-6.19-1.63-11.43-5.67-17.22-8.41-11.08-5.24-24.01-5.62-34.98-11.09-.7-.35-1.4-.73-1.91-1.32s-.78-1.44-.49-2.17,1.25-1.16.72-.61Z"/>
    <path class="cls-10" d="m478.92,923.17c8.76,1.61,17.52,3.22,26.29,4.84,3.68.68,7.38,1.36,10.91,2.6s6.91,3.08,9.5,5.79c.5.52.99,1.17.91,1.88-.09.8-.92,1.35-1.73,1.42-.8.07-1.59-.23-2.34-.52-6.93-2.61-14.13-4.49-21.46-5.6-4.21-.64-8.47-1.02-12.59-2.1-4.12-1.08-8.15-2.92-11.07-6.02-.54-.58-1.08-1.37-.8-2.11.24-.64,1.02-.94,1.69-.85.68.09,1.27.47.69.66Z"/>
    <path class="cls-10" d="m489.14,962.97c1.86-1.29,3.28-3.19,4.02-5.33.23-.67.36-1.51-.13-2.02-.39-.4-1.04-.44-1.56-.24s-.94.6-1.34.98c-10.1,9.76-19.17,20.59-26.99,32.26-.4.6-.81,1.34-.5,1.99.32.67,1.21.8,1.95.84,9.35.5,19.07.94,27.69-2.7.66-.28,1.44-.83,1.23-1.52-.22-.74-1.28-.7-2.03-.51-6.48,1.59-13.23,2.07-19.87,1.4-1.32-.13-2.94-.59-3.17-1.89-.15-.89.46-1.72,1.05-2.41,6.33-7.48,12.24-15.68,19.65-20.85Z"/>
    <path class="cls-10" d="m497.96,986.67c-.71-.65-2.01-.33-2.41.54-.41.87.09,2.01.96,2.4.88.39,1.98.07,2.6-.67.38-.45.59-1.08.43-1.65s-.73-1.03-1.58-.62Z"/>
    <path class="cls-10" d="m528.68,951.97c-4.26,4.25-8.23,8.79-11.87,13.58-.24.31-.48.65-.55,1.04s.11.85.48.97c.41.14.82-.17,1.15-.46,5.2-4.56,10.51-9.26,13.73-15.38-.79-.51-1.84-.58-2.69-.18s-1.47,1.26-.25.43Z"/>
    <path class="cls-10" d="m514.3,969.96c-1.07-.19-2.21.7-2.28,1.79-.03.46.15.98.58,1.15.5.2,1.04-.16,1.46-.5.31-.25.63-.51.84-.85s.3-.78.13-1.15-.66-.58-.72-.43Z"/>
    <path class="cls-10" d="m471.16,948.92c.35-1.03-.18-2.2-1.01-2.9-.83-.7-1.91-1.03-2.96-1.3-11.89-3.03-25.14-.12-34.66,7.61,1.99,2.39,5.63,2.6,8.64,1.81,3.01-.79,5.8-2.35,8.87-2.86,6.69-1.12,13.69,2.89,20.17.87,1.47-.46,3-1.42,3.27-2.95.27-1.52-1.65-3.15-2.32-.27Z"/>
    <g>
      <path class="cls-8" d="m503.34,890.36s-41.63,9.43-43.64,12.24h0c-2.01,2.81-36.91,38.7-37.54,43.15-.63,4.45,30.51,42.8,33.6,47.32,3.09,4.53,38.24-.52,42.91-1.16,4.67-.63,39.09-41.78,40.38-44.85,1.28-3.07-33.68-57.19-35.71-56.71Z"/>
      <path class="cls-8" d="m459.73,903.72c10.05,15.5,20.1,30.99,30.15,46.49,15.42-1.48,30.88-2.51,46.36-3.09"/>
      <path class="cls-8" d="m490.01,951.36c-12.38,13.2-23.69,27.41-33.75,42.44"/>
    </g>
  </g>
  <g class="cls-15">
    <path class="cls-10" d="m578.89,800.46c-.44.22-.65.81-.45,1.26s.79.68,1.25.49c.55-.23.77-.89.91-1.47,2.69-10.65,4.64-21.49,5.83-32.41.23-2.09.65-4.53,2.52-5.5,1.44-.75,3.2-.29,4.72.27,12.02,4.41,22.02,14.14,34.69,16,1.41.21,3.15.16,3.86-1.08.48-.83.26-1.92-.3-2.69s-1.41-1.29-2.25-1.73c-5.2-2.75-11.19-3.7-16.47-6.29-4.96-2.43-9.14-6.21-13.97-8.9-3.34-1.86-7.49-3.18-10.93-1.5-2.53,1.24-4.12,3.88-4.81,6.61-.69,2.73-.63,5.58-.67,8.39-.16,10.09-1.82,20.15-3.92,28.52Z"/>
    <path class="cls-10" d="m577.42,805.51c-.65.48-1.35,1.07-1.4,1.88-.04.82.76,1.56,1.58,1.49s1.48-.87,1.44-1.69c-.04-.82-.74-1.54-1.62-1.68Z"/>
    <path class="cls-10" d="m594.97,742.1c10.35-4.39,20.79-8.81,31.81-11.08,11.01-2.27,22.78-2.28,33.18,1.99-6.84,2.07-14.18,1.29-21.28,2.08-13.59,1.5-26.1,8.69-39.72,9.91-.86.08-1.76.13-2.58-.14s-1.58-.91-1.73-1.77.51-1.83.32-1Z"/>
    <path class="cls-10" d="m614.99,755.41c9.27-3.59,18.53-7.18,27.8-10.77,3.89-1.51,7.8-3.02,11.88-3.9,4.08-.88,8.37-1.11,12.41-.05.78.2,1.63.53,1.96,1.26.38.82-.09,1.82-.81,2.36-.73.53-1.64.71-2.53.88-8.11,1.57-16.05,4-23.66,7.23-4.37,1.86-8.64,3.98-13.19,5.36-4.54,1.38-9.45,1.99-14.04.75-.86-.23-1.82-.67-1.99-1.54-.15-.75.42-1.48,1.11-1.8.69-.31,1.48-.3,1.04.23Z"/>
    <path class="cls-10" d="m647.96,787.26c1.01-2.31,1.25-4.95.7-7.41-.17-.77-.54-1.64-1.3-1.84-.6-.16-1.25.19-1.62.69s-.54,1.12-.7,1.72c-3.9,15.18-6.17,30.77-6.79,46.43-.03.8.01,1.75.69,2.18.7.45,1.62.06,2.35-.34,9.17-4.99,18.66-10.26,24.73-18.75.47-.65.88-1.64.28-2.17-.65-.57-1.62.08-2.23.7-5.22,5.3-11.36,9.7-18.06,12.95-1.33.65-3.14,1.16-4.12.05-.67-.76-.56-1.9-.41-2.9,1.64-10.81,2.46-22.05,6.48-31.3Z"/>
    <path class="cls-10" d="m670.2,804.61c-1.05-.2-2.1.86-1.98,1.93.12,1.06,1.26,1.86,2.32,1.72,1.06-.14,1.92-1.09,2.07-2.15.09-.65-.07-1.37-.55-1.82s-1.3-.56-1.86.33Z"/>
    <path class="cls-10" d="m679.1,753.69c-1.56,6.53-2.68,13.16-3.34,19.84-.04.44-.08.9.08,1.31s.6.74,1.03.64c.47-.11.68-.64.83-1.1,2.28-7.37,4.58-14.94,4.06-22.64-1.05-.02-2.09.52-2.66,1.4-.57.88-.66,2.05,0,.55Z"/>
    <path class="cls-10" d="m675.96,779.18c-1.13.45-1.69,1.96-1.12,3.03.24.45.71.84,1.22.75.6-.1.9-.76,1.09-1.33.15-.42.3-.85.3-1.3,0-.45-.17-.92-.55-1.16s-.96-.16-.94.01Z"/>
    <path class="cls-10" d="m622.66,784.42c-.28-1.18-1.46-1.98-2.66-2.17-1.2-.18-2.42.13-3.58.5-13.07,4.07-23.95,14.58-28.48,27.5,3.29,1.11,6.87-.83,9.27-3.33,2.4-2.51,4.14-5.62,6.75-7.9,5.7-4.98,14.7-5.26,19.67-10.97,1.13-1.3,2.02-3.11,1.39-4.71s-3.41-2.03-2.36,1.09Z"/>
    <g>
      <path class="cls-8" d="m619.01,709.97s-34.04,33.3-34.3,37.15h0c-.27,3.84-12.44,58.34-10.44,62.94,2,4.6,54,22.82,59.59,25.32,5.59,2.49,36.03-22.85,40.09-26.18,4.06-3.33,12.72-62.55,12.14-66.22-.58-3.67-65.43-34.64-67.08-33Z"/>
      <path class="cls-8" d="m585.38,748.16c18.61,8.85,37.22,17.69,55.83,26.54,13.79-10.42,27.87-20.44,42.24-30.04"/>
      <path class="cls-8" d="m642,775.72c-4.05,19.78-6.48,39.88-7.26,60.06"/>
    </g>
  </g>
  <g>
    <path class="cls-7" d="m757.88,382.15c0,.89-.1,1.76-.3,2.62v.02c-6.1,26.99-104.67,48.46-225.38,48.46s-219.28-21.46-225.38-48.46v-.02c-.19-.86-.3-1.74-.3-2.62,0-28.22,101.04-51.09,225.68-51.09s225.68,22.87,225.68,51.09Z"/>
    <path class="cls-7" d="m757.58,384.79l-68.97,607.29c0,19.56-70.03,35.41-156.41,35.41s-156.41-15.85-156.41-35.41l-68.97-607.29c6.1,26.99,104.67,48.46,225.38,48.46s219.28-21.46,225.38-48.46Z"/>
    <polyline class="cls-7" points="306.81 384.79 306.81 384.77 306.52 382.15"/>
    <polyline class="cls-7" points="757.58 384.79 757.58 384.77 757.88 382.15"/>
  </g>
  <polyline class="cls-7" points="306.81 384.79 306.81 384.77 306.52 382.15"/>
  <polyline class="cls-7" points="757.58 384.79 757.58 384.77 757.88 382.15"/>
  <path class="cls-7" d="m757.58,384.79l-68.97,607.29c0,19.56-70.03,35.41-156.41,35.41s-156.41-15.85-156.41-35.41l-68.97-607.29c6.1,26.99,104.67,48.46,225.38,48.46s219.28-21.46,225.38-48.46Z"/>
  <g class="cls-14">
    <path class="cls-6" d="m320.21,502.76l55.58,489.33c0,19.56,70.03,35.41,156.41,35.41s156.41-15.85,156.41-35.41l56.7-499.26s-24.84,23.31-69.31,23.31c-58.74,0-67.44-19.11-107-22.92-39.34-3.79-59.92,30.72-87.04,28.1-57.74-5.57-52.85-44.38-99.37-45.12-41.53-.67-59.42,26.39-62.38,26.57Z"/>
  </g>
  <path class="cls-7" d="m757.88,382.15c0,.89-.1,1.76-.3,2.62v.02c-6.1,26.99-104.67,48.46-225.38,48.46s-219.28-21.46-225.38-48.46v-.02c-.19-.86-.3-1.74-.3-2.62"/>
</svg>