<?xml version="1.0" encoding="utf-8"?>
<!-- Generator: Adobe Illustrator 27.5.0, SVG Export Plug-In . SVG Version: 6.00 Build 0)  -->
<svg version="1.1" xmlns="http://www.w3.org/2000/svg" xmlns:xlink="http://www.w3.org/1999/xlink" x="0px" y="0px"
	 viewBox="0 0 14400 14400" style="enable-background:new 0 0 14400 14400;" xml:space="preserve">
<style type="text/css">
	.st0{fill:#383838;}
	.st1{fill:#FFF2A6;}
	.st2{fill:#964E00;}
	.st3{fill:#FFFFFF;}
	.st4{fill:#FF0000;}
	.st5{fill:#BC0000;}
	.st6{fill:#FFFFFF;stroke:#6D2100;stroke-width:2;stroke-miterlimit:10;}
	.st7{stroke:#000000;stroke-width:2;stroke-miterlimit:10;}
	.st8{display:none;}
	.st9{display:inline;fill:#FFC0E6;}
	.st10{display:inline;}
</style>
<g id="레이어_1_사본">
	<g>
		<path class="st0" d="M7391.66,6998.83l-467.58,165.54v339.93l603.76-200.22l108.23-217.21
			C7636.07,7086.86,7564.26,6950.74,7391.66,6998.83z"/>
		<polygon class="st1" points="7527.84,7304.07 6924.08,7504.29 6924.08,7215.82 7527.84,7015.6 		"/>
		<polygon class="st2" points="7527.84,7110.82 6924.08,7311.04 6924.08,7259.27 7527.84,7059.05 		"/>
		<polygon class="st2" points="7527.84,7191.91 6924.08,7392.13 6924.08,7340.36 7527.84,7140.14 		"/>
		<polygon class="st2" points="7527.84,7271.83 6924.08,7472.05 6924.08,7420.28 7527.84,7220.06 		"/>
		<path class="st3" d="M6924.08,7215.82l603.76-200.22v-38.78c0,0-82.03-118.15-250.86-59.08l-352.9,246.62V7215.82z"/>
		<polygon class="st3" points="7527.84,7304.07 7489.23,7316.87 7488.23,7028.65 7527.84,7015.6 		"/>
		<path class="st0" d="M7374.1,6976.36c-0.91,24.07-38.61,45.54-65.16,45.54s-30.99-21.45-30.99-45.54s21.54-39,48.09-39.02
			C7352.62,6937.32,7375.02,6951.8,7374.1,6976.36z"/>
		<circle class="st4" cx="7308.94" cy="6973.82" r="48.08"/>
		<path class="st5" d="M7349.51,6948.05c8.04,20.34,1.87,44.32-16.5,58.03s-43.12,12.79-60.33-0.71
			c16.35,18.83,44.7,22.14,65.01,6.99C7358,6997.21,7362.9,6969.09,7349.51,6948.05z"/>
		<path class="st6" d="M7307.05,6956.64c0,0-6.51-29.72,15.2-43.91C7322.26,6912.73,7301.84,6922.94,7307.05,6956.64z"/>
		<path class="st7" d="M7296.92,6952.4c0,0,9.85,9.7,21.57,0C7318.49,6952.4,7308.21,6961.96,7296.92,6952.4z"/>
	</g>
</g>
<g id="레이어_1" class="st8">
	<rect x="6659.5" y="6659.5" class="st9" width="1080" height="1080"/>
	<g class="st10">
		<path class="st0" d="M7391.66,6998.83l-559.77,257.73v339.93l695.95-292.42l108.23-217.21
			C7636.07,7086.86,7564.26,6950.74,7391.66,6998.83z"/>
		<polygon class="st1" points="7527.84,7304.07 6831.89,7596.49 6831.89,7308.01 7527.84,7015.6 		"/>
		<polygon class="st2" points="7527.84,7110.82 6831.89,7403.24 6831.89,7351.47 7527.84,7059.05 		"/>
		<polygon class="st2" points="7527.84,7191.91 6831.89,7484.32 6831.89,7432.55 7527.84,7140.14 		"/>
		<polygon class="st2" points="7527.84,7271.83 6831.89,7564.25 6831.89,7512.48 7527.84,7220.06 		"/>
		<path class="st3" d="M6831.89,7308.01l695.95-292.41v-38.78c0,0-82.03-118.15-250.86-59.08l-445.1,338.82V7308.01z"/>
		<polygon class="st3" points="7527.84,7304.07 7488.73,7320.51 7488.73,7032.03 7527.84,7015.6 		"/>
		<path class="st0" d="M7349.1,7001.36c-0.91,24.07-38.61,45.54-65.16,45.54s-30.99-21.45-30.99-45.54s21.54-39,48.09-39.02
			C7327.62,6962.32,7350.02,6976.8,7349.1,7001.36z"/>
		<circle class="st4" cx="7283.94" cy="6998.82" r="48.08"/>
		<path class="st5" d="M7324.51,6973.05c8.04,20.34,1.87,44.32-16.5,58.03s-43.12,12.79-60.33-0.71
			c16.35,18.83,44.7,22.14,65.01,6.99C7333,7022.21,7337.9,6994.09,7324.51,6973.05z"/>
		<path class="st6" d="M7282.05,6981.64c0,0-6.51-29.72,15.2-43.91C7297.26,6937.73,7276.84,6947.94,7282.05,6981.64z"/>
		<path class="st7" d="M7271.92,6977.4c0,0,9.85,9.7,21.57,0C7293.49,6977.4,7283.21,6986.96,7271.92,6977.4z"/>
	</g>
</g>
</svg>
