<?xml version="1.0" encoding="utf-8"?>
<!-- Generator: Adobe Illustrator 27.5.0, SVG Export Plug-In . SVG Version: 6.00 Build 0)  -->
<svg version="1.1" xmlns="http://www.w3.org/2000/svg" xmlns:xlink="http://www.w3.org/1999/xlink" x="0px" y="0px"
	 viewBox="0 0 1080 1080" style="enable-background:new 0 0 1080 1080;" xml:space="preserve">
<style type="text/css">
	.st0{fill:#FFF2A6;}
	.st1{fill:#964E00;}
	.st2{fill:#FFFFFF;}
	.st3{fill:#383838;}
	.st4{fill:#FF0000;}
	.st5{fill:#BC0000;}
	.st6{fill:#FFFFFF;stroke:#6D2100;stroke-width:2;stroke-miterlimit:10;}
	.st7{stroke:#000000;stroke-width:2;stroke-miterlimit:10;}
	.st8{display:none;}
	.st9{display:inline;fill:#FFC0E6;}
	.st10{display:inline;}
</style>
<g id="레이어_1_사본">
	<g>
		<polygon class="st0" points="868.34,644.57 264.58,844.79 264.58,556.32 868.34,356.1 		"/>
		<polygon class="st1" points="868.34,451.32 264.58,651.54 264.58,599.77 868.34,399.55 		"/>
		<polygon class="st1" points="868.34,532.41 264.58,732.63 264.58,680.86 868.34,480.64 		"/>
		<polygon class="st1" points="868.34,612.33 264.58,812.55 264.58,760.78 868.34,560.56 		"/>
		<path class="st2" d="M264.58,556.32L868.34,356.1v-38.78c0,0-82.03-118.15-250.86-59.08l-352.9,246.62V556.32z"/>
		<polygon class="st2" points="868.34,644.57 829.73,657.37 828.73,369.15 868.34,356.1 		"/>
		<path class="st3" d="M714.6,316.86c-0.91,24.07-38.61,45.54-65.16,45.54s-30.99-21.45-30.99-45.54s21.54-39,48.09-39.02
			C693.12,277.82,715.52,292.3,714.6,316.86z"/>
		<circle class="st4" cx="649.44" cy="314.32" r="48.08"/>
		<path class="st5" d="M690.01,288.55c8.04,20.34,1.87,44.32-16.5,58.03c-18.37,13.71-43.12,12.79-60.33-0.71
			c16.35,18.83,44.7,22.14,65.01,6.99C698.5,337.71,703.4,309.59,690.01,288.55z"/>
		<path class="st6" d="M647.55,297.14c0,0-6.51-29.72,15.2-43.91C662.76,253.23,642.34,263.44,647.55,297.14z"/>
		<path class="st7" d="M637.42,292.9c0,0,9.85,9.7,21.57,0C658.99,292.9,648.71,302.46,637.42,292.9z"/>
	</g>
</g>
<g id="레이어_1" class="st8">
	<rect class="st9" width="1080" height="1080"/>
	<g class="st10">
		<path class="st3" d="M732.16,339.33L172.39,597.06l0,339.93l695.95-292.41l108.23-217.21
			C976.57,427.36,904.76,291.24,732.16,339.33z"/>
		<polygon class="st0" points="868.34,644.57 172.39,936.99 172.39,648.51 868.34,356.1 		"/>
		<polygon class="st1" points="868.34,451.32 172.39,743.74 172.39,691.97 868.34,399.55 		"/>
		<polygon class="st1" points="868.34,532.41 172.39,824.82 172.39,773.05 868.34,480.64 		"/>
		<polygon class="st1" points="868.34,612.33 172.39,904.75 172.39,852.98 868.34,560.56 		"/>
		<path class="st2" d="M172.39,648.51L868.34,356.1v-38.78c0,0-82.03-118.15-250.86-59.08l-445.1,338.82V648.51z"/>
		<polygon class="st2" points="868.34,644.57 829.23,661.01 829.23,372.53 868.34,356.1 		"/>
		<path class="st3" d="M689.6,341.86c-0.91,24.07-38.61,45.54-65.16,45.54s-30.99-21.45-30.99-45.54s21.54-39,48.09-39.02
			C668.12,302.82,690.52,317.3,689.6,341.86z"/>
		<circle class="st4" cx="624.44" cy="339.32" r="48.08"/>
		<path class="st5" d="M665.01,313.55c8.04,20.34,1.87,44.32-16.5,58.03c-18.37,13.71-43.12,12.79-60.33-0.71
			c16.35,18.83,44.7,22.14,65.01,6.99C673.5,362.71,678.4,334.59,665.01,313.55z"/>
		<path class="st6" d="M622.55,322.14c0,0-6.51-29.72,15.2-43.91C637.76,278.23,617.34,288.44,622.55,322.14z"/>
		<path class="st7" d="M612.42,317.9c0,0,9.85,9.7,21.57,0C633.99,317.9,623.71,327.46,612.42,317.9z"/>
	</g>
</g>
</svg>
